<svg width="414" height="430" viewBox="0 0 414 430" fill="none" xmlns="http://www.w3.org/2000/svg">
<path d="M0 8H414V430H0V8Z" fill="black"/>
<path d="M173 0L165 8H190L198 0H173Z" fill="black"/>
<path d="M122 0L114 8H139L147 0H122Z" fill="black"/>
<path d="M71 0L63 8H88L96 0H71Z" fill="black"/>
<path d="M20 0L12 8H37L45 0H20Z" fill="black"/>
<path d="M224 0L216 8H241L249 0H224Z" fill="black"/>
<path d="M275 0L267 8H292L300 0H275Z" fill="black"/>
<path d="M326 0L318 8H343L351 0H326Z" fill="black"/>
<path d="M377 0L369 8H394L402 0H377Z" fill="black"/>
</svg>
