<svg width="27" height="28" viewBox="0 0 27 28" fill="none" xmlns="http://www.w3.org/2000/svg">
<path id="Vector 3" d="M25.4167 22.0918L26.7021 24.5341C27.3395 25.7451 26.6 27.2286 25.2438 27.4119C20.5131 28.0513 17.0917 28.067 11.5 27C6.67195 25.3192 4.30783 23.5185 2.0338 19.4886C1.3027 18.1931 0.852356 16.7618 0.560606 15.303C0.188814 13.4441 0.0871639 11.5412 0.258801 9.6532L0.5 7L0.568972 6.70112C1.40663 3.07127 4.63885 0.5 8.3641 0.5H20.841C23.0229 0.5 24.4749 2.75511 23.5721 4.74141L23.5378 4.81684C23.1834 5.59657 23 6.44315 23 7.29965V12.3111C23 15.7191 23.8294 19.0759 25.4167 22.0918Z" fill="white"/>
</svg>
