<svg width="28" height="28" viewBox="0 0 28 28" fill="none" xmlns="http://www.w3.org/2000/svg">
<path id="Vector 2" d="M2.08328 22.0918L0.797867 24.5341C0.160494 25.7451 0.900032 27.2286 2.2562 27.4119C6.98685 28.0513 10.4083 28.067 16 27C20.8281 25.3192 23.1922 23.5185 25.4662 19.4886C26.1973 18.1931 26.6476 16.7618 26.9394 15.303C27.3112 13.4441 27.4128 11.5412 27.2412 9.6532L27 7L26.931 6.70112C26.0934 3.07127 22.8611 0.5 19.1359 0.5H6.65901C4.47715 0.5 3.02505 2.75511 3.92791 4.74141L3.9622 4.81684C4.31662 5.59657 4.5 6.44315 4.5 7.29965V12.3111C4.5 15.7191 3.67056 19.0759 2.08328 22.0918Z" fill="white"/>
</svg>
