<svg width="357" height="54" viewBox="0 0 357 54" fill="none" xmlns="http://www.w3.org/2000/svg">
<path d="M-10 3.5L-10.2678 3.76777C-10.7366 4.23661 -11 4.87249 -11 5.53553V35.5977C-11 51.6139 1.98374 64.5977 18 64.5977H356.123C357.013 64.5977 357.296 63.398 356.5 63L355.911 62.7054C354.307 61.9035 352.632 61.2521 350.908 60.7596L350 60.5C348.833 60.1667 346.3 59.5 345.5 59.5H342.5L341.289 59.3789C338.778 59.1278 336.32 58.4942 334 57.5L330 56L329.915 55.9715C327.977 55.3257 325.977 54.8775 323.944 54.6833C322.873 54.5811 321.895 54.5 321.5 54.5H320.061C318.689 54.5 317.318 54.4026 315.96 54.2085L314.5 54L314.193 53.9385C312.737 53.6475 311.327 53.1637 310 52.5L307 50.5L305.193 49.5966C303.072 48.5362 300.83 47.7399 298.515 47.2255L293 46L283.5 44.5C280.333 44.1667 273.7 43.5 272.5 43.5H258.5H254.5H251C250.926 43.5 250.818 43.4887 250.686 43.4693C249.215 43.2533 247.829 42.6647 246.5 42L240 39L232 36.5L225.5 34.5L217.5 33L209.5 31C206.333 30.5 199.8 29.5 199 29.5H190.5H184.5L175 28.5C172.667 28 167.9 26.9 167.5 26.5C167.1 26.1 163.667 25 162 24.5L158.204 23.4154C156.075 22.8071 154.033 21.9371 152.063 20.9251C151.061 20.4101 150.198 20 150 20C149.6 20 146.5 18.6667 145 18C142.678 17.3366 140.275 17 137.86 17H137.5C136.833 17 135.1 17.2 133.5 18C132.784 18.3579 131.908 18.4623 131.069 18.4385C129.33 18.3893 127.634 17.8738 125.911 17.6392C123.625 17.3282 121.061 17 120.5 17H112.5H110.415C108.508 17 106.636 16.4815 105 15.5C103.702 14.5263 102.123 14 100.5 14H98.5H95.1729C93.7286 14 92.2887 13.8419 90.8788 13.5286C89.2989 13.1775 87.768 12.634 86.3204 11.9102L85.5 11.5L82 10C80.3485 9.3394 78.5861 9 76.8074 9H76H73.8052C73.2896 9 72.7952 8.79519 72.4306 8.43063C71.8686 7.86856 71.0209 7.70532 70.2903 8.01844L69.3567 8.41855C68.4903 8.78985 67.5097 8.78985 66.6433 8.41855L65.6334 7.98576C64.8856 7.66526 64.0805 7.5 63.2669 7.5H62.4577C61.5039 7.5 60.5679 7.75924 59.75 8.25C58.9321 8.74076 57.9964 9 57.0425 9H54C53.4726 9 51.9022 8.56542 50.4635 8.12599C49.1511 7.72515 47.8224 7.3768 46.4723 7.13132L46.224 7.08619C44.0815 6.69664 41.9896 6.06699 39.9881 5.20917L39.5 5L36.2715 3.06288C35.0932 2.35592 33.8499 1.76359 32.5585 1.29401L30.8229 0.662856C29.6169 0.224329 28.3436 0 27.0604 0H23.9142C23.0087 0 22.1403 0.35971 21.5 1L21.3839 1.11612C20.8179 1.68206 20.0504 2 19.25 2C18.4496 2 17.6821 2.31794 17.1161 2.88388L16.3839 3.61612C15.8179 4.18206 15.0504 4.5 14.25 4.5H13.8284C13.298 4.5 12.7893 4.71071 12.4142 5.08579L12 5.5C11.4477 6.05228 10.5523 6.05228 10 5.5C9.44772 4.94772 8.55228 4.94772 8 5.5C7.44772 6.05228 6.55228 6.05228 6 5.5C5.44772 4.94772 4.55229 4.94772 4 5.5C3.44771 6.05228 2.55229 6.05229 2 5.5L1.58579 5.08579C1.21071 4.71071 0.702005 4.5 0.171573 4.5H-1.37868C-1.7765 4.5 -2.15804 4.34196 -2.43934 4.06066L-2.5 4C-3.05228 3.44772 -3.94772 3.44772 -4.5 4C-5.05228 4.55228 -5.94772 4.55228 -6.5 4L-7 3.5C-7.82843 2.67157 -9.17157 2.67157 -10 3.5Z" fill="white"/>
</svg>
