<svg width="146" height="124" viewBox="0 0 146 124" fill="none" xmlns="http://www.w3.org/2000/svg">
<g id="Vector">
<path d="M60.9819 84.0336C100.114 100.561 122.361 83.832 122.361 83.832C104.484 108.22 87.0034 104.996 76.4756 103.988C65.9478 102.98 39.1317 105.802 30.9875 121.926C22.8434 138.051 5.36324 135.431 5.36324 135.431C17.0829 146.718 33.7684 136.237 33.7684 136.237C33.7684 136.237 51.6459 123.539 90.3802 138.253C129.115 152.966 150.17 115.275 150.17 115.275C152.355 132.81 167.054 133.818 167.054 133.818C160.499 114.267 187.911 98.3442 187.911 98.3442C234.393 68.5137 209.166 30.6209 209.166 30.6209C178.973 -26.2183 133.286 13.4885 133.286 13.4885C95.7435 48.3579 94.7503 44.1252 44.2963 51.5828C-6.15776 59.0405 3.37685 108.22 3.37685 108.22C3.37685 108.22 21.8502 67.5059 60.9819 84.0336ZM163.28 95.5224C159.705 102.375 144.41 118.097 120.176 115.678C95.9421 113.259 83.6266 123.136 83.6266 123.136C88.5925 114.469 103.689 108.422 118.785 106.406C133.882 104.391 144.807 97.5379 144.807 97.5379C167.253 83.832 163.479 64.281 163.479 64.281C170.034 77.5837 166.856 88.6694 163.28 95.5224ZM137.457 37.0707C157.321 13.287 184.336 27.396 185.726 45.9392C185.726 45.9392 169.239 30.2178 145.403 49.5673C121.566 68.9168 98.9217 60.0483 95.5448 56.6218C95.5448 56.6218 117.594 60.8545 137.457 37.0707Z" fill="#424354"/>
<path d="M70.1192 40.6988C92.3666 45.3346 101.305 24.9773 101.305 24.9773C101.305 24.9773 94.353 33.2411 72.3042 29.0084C50.2554 24.7757 40.9194 40.6988 40.9194 40.6988C40.9194 40.6988 47.8717 36.0629 70.1192 40.6988Z" fill="#424354"/>
<path d="M43.5017 147.323C27.8162 156.139 14.5006 150.144 14.5006 150.144C21.4529 158.811 32.9739 162.843 47.2758 154.176C61.5778 145.509 68.5301 147.323 68.5301 147.323C66.941 144.098 57.307 139.563 43.5017 147.323Z" fill="#424354"/>
<path d="M29.6964 109.732C43.5017 91.9951 58.8961 96.4294 58.8961 96.4294C45.9847 87.964 32.1794 91.9951 22.6447 106.507C13.1101 121.019 0 123.035 0 123.035C0 123.035 15.8911 127.469 29.6964 109.732Z" fill="#424354"/>
</g>
</svg>
