<svg width="20" height="26" viewBox="0 0 20 26" fill="none" xmlns="http://www.w3.org/2000/svg">
<path d="M19.4015 16.4818C19.3648 19.9462 16.7244 20.2961 16.7244 20.2961C21.4918 14.6272 14.4508 8.57335 14.4508 8.57335C15.6976 11.7927 8.98663 13.4724 10.6735 7.45357C12.3605 1.43472 7.40974 0 7.40974 0C7.40974 0 10.0134 1.67968 5.86951 7.38358C1.72558 13.1225 5.24609 17.0767 5.24609 17.0767C2.0923 16.3419 2.45902 12.9125 2.45902 12.9125C-4.61868 22.6756 5.83284 26 5.83284 26H6.0162C5.31943 25.0902 4.51265 23.0956 7.29972 20.1911C11.2236 16.1669 10.0868 15.2571 10.0868 15.2571C10.0868 15.2571 13.1306 17.4266 9.75674 20.646C6.38292 23.9004 13.3506 26.4199 12.5071 18.8614C12.5071 18.8614 15.6976 23.7254 13.3506 25.965C22.812 24.2503 19.4015 16.4818 19.4015 16.4818Z" fill="#D4505D"/>
</svg>
