<svg width="68" height="71" viewBox="0 0 68 71" fill="none" xmlns="http://www.w3.org/2000/svg">
<g filter="url(#filter0_d_11_435)">
<path d="M41.4014 32.147H25.8093V37.8665H41.4014V32.147Z" fill="url(#paint0_linear_11_435)"/>
<path d="M32.8669 38.5111V50.3582C33.148 50.6196 33.3948 50.9157 33.6013 51.2393C33.8053 50.9164 34.0523 50.6227 34.3356 50.3663V38.5111H32.8669Z" fill="url(#paint1_linear_11_435)"/>
<path d="M35.2657 38.5111V49.9992C35.7548 49.9707 36.2452 49.9707 36.7344 49.9992V38.5111H35.2657Z" fill="url(#paint2_linear_11_435)"/>
<path d="M37.6563 38.5111V50.0236H39.1331V38.5111H37.6563Z" fill="url(#paint3_linear_11_435)"/>
<path d="M25.8093 38.5111V45.2016C25.8093 46.2133 25.7603 47.2414 25.8093 48.2531C25.8582 49.2648 26.1765 49.8278 27.1392 49.9992V38.5111H25.8093Z" fill="url(#paint4_linear_11_435)"/>
<path d="M40.0551 38.5111V49.9992C41.0668 49.8523 41.3687 49.118 41.3932 48.1797C41.3932 47.1027 41.3932 46.0257 41.3932 44.916V38.5111H40.0551Z" fill="url(#paint5_linear_11_435)"/>
<path d="M28.0694 38.5111V50.0236H29.538V38.5111H28.0694Z" fill="url(#paint6_linear_11_435)"/>
<path d="M30.4681 38.5111V50.0236C30.9495 50.0236 31.4554 49.9502 31.9368 50.0236V38.5111H30.4681Z" fill="url(#paint7_linear_11_435)"/>
<path d="M26.2336 25.8809C26.041 25.7594 25.8843 25.5887 25.7796 25.3865C25.6749 25.1843 25.626 24.9578 25.6379 24.7304C25.4782 24.7156 25.3179 24.7528 25.1811 24.8367C25.0444 24.9205 24.9384 25.0464 24.8792 25.1955C25.181 26.1338 26.1601 26.8681 26.6415 27.7412C27.1066 27.8962 27.2535 27.578 27.2698 27.1537C27.0059 26.6691 26.6545 26.2376 26.2336 25.8809Z" fill="url(#paint8_linear_11_435)"/>
<path d="M42.1112 24.8038C41.948 26.0685 40.561 26.7212 39.9327 27.7492C39.3045 28.7773 40.047 30.507 38.8884 31.0782C39.3616 31.5677 40.1041 30.8905 40.2428 30.4336C40.4631 29.683 40.2917 29.0221 40.7813 28.3367C41.124 27.839 41.6951 27.5208 41.9725 26.9497C42.2185 26.2614 42.2665 25.518 42.1112 24.8038Z" fill="url(#paint9_linear_11_435)"/>
<path d="M16.3039 9.81555C16.3937 9.57894 16.7935 10.0277 16.9159 10.044C17.2912 10.093 17.3564 9.79107 17.1117 9.48919C16.5732 8.85278 15.7736 9.57894 16.1407 10.2643C16.2386 10.1174 16.2386 9.96242 16.3039 9.81555Z" fill="url(#paint10_linear_11_435)"/>
<path d="M16.9648 10.3785C16.7862 10.3345 16.621 10.2477 16.4834 10.1256L16.3203 10.5825C16.3979 10.7014 16.4824 10.8158 16.5732 10.9252L16.9648 10.3785Z" fill="url(#paint11_linear_11_435)"/>
<path d="M19.6084 14.3765C18.9801 14.5152 17.2994 13.838 16.8343 14.3765C16.9812 14.7192 17.5278 14.7518 17.8297 14.8171C18.36 14.9395 18.8822 15.0863 19.3881 15.2495L19.6329 14.3602L19.6084 14.3765Z" fill="url(#paint12_linear_11_435)"/>
<path d="M17.283 13.9767C17.6339 13.9767 19.6166 14.4662 19.7308 13.9767C19.5023 13.2668 18.2295 12.8262 17.7073 12.4346C16.8827 11.8491 16.2247 11.0589 15.7981 10.1419C15.6814 10.5981 15.5397 11.0475 15.3738 11.4881C15.2188 11.8472 14.9251 12.1654 14.8108 12.5244C14.5497 13.3403 15.8307 14.1154 16.3366 14.5886C16.4056 14.3971 16.5356 14.2335 16.7066 14.123C16.8775 14.0124 17.0801 13.961 17.283 13.9767Z" fill="url(#paint13_linear_11_435)"/>
<path d="M26.4375 24.3632C26.4241 24.1396 26.3599 23.922 26.2499 23.7268C25.5237 23.6616 24.7404 23.9145 24.8139 24.7875C25.1974 24.3388 25.9072 24.4285 26.4457 24.5427C26.4556 24.483 26.4528 24.4218 26.4375 24.3632Z" fill="url(#paint14_linear_11_435)"/>
<path d="M18.1642 17.5993C20.0775 18.202 21.864 19.1505 23.435 20.3979C24.1845 21.0031 24.8932 21.6573 25.5564 22.3561C26.0541 22.8864 26.8619 23.7513 26.6905 24.559C27.322 24.3103 27.8648 23.8784 28.2489 23.3189C28.8037 22.6743 28.5834 22.2011 28.0776 21.5891C27.0675 20.4157 25.929 19.3593 24.6834 18.4397C23.4834 17.5056 22.177 16.7168 20.7915 16.0899C20.0738 15.7611 19.3319 15.4883 18.5722 15.274C18.0337 15.119 16.8996 15.0945 16.6058 14.507C16.4345 15.2186 16.4178 15.9587 16.5569 16.6773C16.6548 17.3709 17.5768 17.4606 18.1642 17.5993Z" fill="url(#paint15_linear_11_435)"/>
<path d="M49.9113 9.3994C49.4952 9.7584 49.6829 10.15 50.1806 9.96238C50.6783 9.77472 50.5722 9.63601 50.8007 10.2643C51.1189 9.66865 50.5069 8.88537 49.9113 9.3994Z" fill="url(#paint16_linear_11_435)"/>
<path d="M49.9766 10.3785L50.3682 10.9252C50.459 10.8158 50.5434 10.7014 50.6211 10.5825L50.458 10.1256C50.3204 10.2477 50.1552 10.3345 49.9766 10.3785Z" fill="url(#paint17_linear_11_435)"/>
<path d="M47.2433 14.0746C48.0592 14.6294 50.2458 13.12 50.5069 14.6947C50.9883 14.2378 52.3183 13.3974 52.1388 12.6304C52.0816 12.3041 51.7716 12.0022 51.6329 11.7003C51.4139 11.197 51.2392 10.6755 51.1107 10.1419C50.6879 11.0428 50.0419 11.8208 49.2341 12.402C48.7201 12.8181 47.382 13.2587 47.1699 13.944C47.2433 13.993 47.2433 14.042 47.2433 14.0746Z" fill="url(#paint18_linear_11_435)"/>
<path d="M49.691 14.2378C48.8751 14.2378 48.1245 14.556 47.3494 14.3765L47.5778 15.1924C48.1 15.021 48.6222 14.8905 49.1525 14.7681C49.4544 14.7028 49.9113 14.6784 50.0174 14.3194C49.9208 14.2563 49.8059 14.2276 49.691 14.2378Z" fill="url(#paint19_linear_11_435)"/>
<path d="M41.4503 24.5999C41.6293 24.7079 41.778 24.8595 41.8828 25.0405C41.9309 24.863 41.9313 24.6761 41.8841 24.4984C41.8368 24.3208 41.7434 24.1588 41.6135 24.0287C41.434 23.8819 40.7976 23.6616 40.6018 23.8003C40.406 23.939 40.2265 24.4041 40.3733 24.5509C40.5202 24.6978 41.2382 24.502 41.4503 24.5999Z" fill="url(#paint20_linear_11_435)"/>
<path d="M50.1887 14.5316C49.895 15.1435 48.7201 15.1516 48.1489 15.3475C47.3905 15.5658 46.6489 15.8384 45.9297 16.1634C44.5034 16.8155 43.161 17.6373 41.9317 18.6111C40.6503 19.54 39.5004 20.6378 38.513 21.8748C38.4053 21.9784 38.322 22.1046 38.2689 22.2444C38.2158 22.3841 38.1943 22.5338 38.206 22.6829C38.2178 22.8319 38.2623 22.9764 38.3366 23.1062C38.4108 23.2359 38.5129 23.3476 38.6354 23.4331C39.0036 23.9556 39.5171 24.3585 40.1122 24.5917C39.8511 23.3842 41.5645 22.0298 42.3315 21.3281C43.3398 20.379 44.4605 19.557 45.6686 18.8804C46.839 18.2898 48.063 17.8117 49.3238 17.4525C49.8216 17.2893 50.1398 17.2812 50.2377 16.7508C50.387 16.0167 50.3702 15.2584 50.1887 14.5316Z" fill="url(#paint21_linear_11_435)"/>
<path d="M31.4962 26.1174C31.2173 26.0649 30.944 25.9857 30.6803 25.8808C30.7456 27.2679 28.9179 28.5162 29.7828 29.9114C29.9849 29.5442 30.263 29.2243 30.5987 28.9731C30.46 28.4591 30.8598 28.043 31.0801 27.6187C31.3637 27.1702 31.5085 26.6479 31.4962 26.1174Z" fill="url(#paint22_linear_11_435)"/>
<path d="M38.7905 29.1934C38.7415 28.712 38.3254 28.5652 37.9745 28.3775C38.0717 28.8138 38.0965 29.2631 38.048 29.7074C38.2764 30.0991 38.5049 30.4744 38.7578 30.8497C38.9209 30.7803 39.0618 30.6675 39.1654 30.5237C39.2689 30.3799 39.3311 30.2105 39.3453 30.0338C39.1859 29.9564 39.0503 29.8375 38.9527 29.6897C38.855 29.5418 38.799 29.3704 38.7905 29.1934Z" fill="url(#paint23_linear_11_435)"/>
<path d="M27.539 27.0231C27.539 27.325 27.539 27.6921 27.2861 27.9124C28.6487 27.994 28.102 26.1337 28.102 25.3097C27.7761 25.8257 27.5827 26.4143 27.539 27.0231Z" fill="url(#paint24_linear_11_435)"/>
<path d="M43.7512 11.5697C43.6941 11.4066 43.7512 11.17 43.6859 11.0068C43.6206 10.8436 43.4982 10.6804 43.4411 10.5172C43.3351 10.1909 43.6125 9.98688 43.4982 9.70131C43.1882 9.90529 43.588 8.75486 43.5798 8.68958C43.2779 9.03227 43.4493 8.18372 43.4493 8.17556C43.4493 7.72681 43.0495 7.61258 42.9108 7.26174C42.7721 6.9109 42.9516 6.38871 42.8618 5.99708C42.7721 5.60544 42.4539 5.58912 42.2336 5.27092C42.0133 4.95271 42.2336 4.61819 41.8256 4.34894C41.6298 4.19391 41.3279 4.23471 41.1403 4.096C40.9526 3.9573 41.0423 4.03073 40.92 3.66357C40.8289 3.36824 40.6852 3.09182 40.4957 2.84766C40.3815 2.72528 39.5329 2.5213 39.7532 2.36627C39.5718 2.23916 39.3663 2.15033 39.1494 2.10518C38.9455 2.10518 38.6925 2.19493 38.5293 2.15414C38.1459 2.07255 38.2927 1.56668 37.8521 1.46877C37.8521 1.7217 37.4687 1.51773 37.5339 1.28927C37.4354 1.12523 37.2823 1.00105 37.1015 0.93843C37.2157 1.07713 37.1994 1.25664 36.9873 1.20768C36.7751 1.15873 36.6691 0.840521 36.4651 0.767089C36.0082 0.579429 35.6492 0.971067 35.282 0.603907C35.1025 0.603907 34.6864 0.187792 34.5151 0.122519C34.2114 0.00504551 33.8817 -0.0287669 33.5604 0.0246099C33.7563 0.416247 33.1117 0.0246099 33.1606 0.0246099C32.8261 -0.0325039 32.7282 0.0654053 32.4426 0.220428C32.1571 0.375451 31.9041 0.628383 31.6267 0.612065C31.3493 0.595747 31.1209 0.424406 30.8108 0.416247C30.2639 0.439956 29.7349 0.618183 29.2851 0.930271C29.0515 1.04743 28.8708 1.24852 28.7792 1.49325C28.7303 1.59116 28.6976 2.01543 28.4773 1.92568C28.3749 1.86078 28.254 1.83122 28.1332 1.84153C28.0123 1.85185 27.8982 1.90147 27.8083 1.9828C28.1591 2.19493 27.4819 2.18677 27.5145 2.18677C27.2698 2.23573 27.0413 2.09702 26.821 2.32548C27.3024 2.51314 26.3315 2.68448 26.258 2.72527C26.0665 2.82169 25.8959 2.95491 25.7559 3.11731C25.6159 3.27971 25.5093 3.46811 25.4421 3.67173C25.2055 4.28367 25.2953 3.94914 24.7323 4.16944C24.1693 4.38973 24.5528 4.7161 24.3488 5.0343C24.4304 4.90376 23.4758 5.73599 23.9245 5.23828C23.5655 5.63808 24.0224 6.27449 23.8185 6.59269C23.7206 6.75588 23.386 6.82931 23.2555 7.00065C23.0963 7.23607 22.9571 7.48444 22.8394 7.74313C22.7723 7.99014 22.7529 8.24766 22.7823 8.50193C22.7411 8.73949 22.7411 8.98236 22.7823 9.21993C22.8884 9.46708 22.9704 9.72393 23.027 9.98688C23.027 10.2561 22.7496 10.3948 22.8231 10.7212C23.0515 10.607 23.0352 11.1047 22.7659 11.0884C22.6785 11.1823 22.6145 11.2955 22.579 11.4189C22.5436 11.5422 22.5377 11.6722 22.562 11.7982C22.8067 11.3495 22.7251 12.0593 22.7251 12.1001C22.6959 12.5101 22.805 12.9181 23.0352 13.2587C23.231 13.634 23.0923 13.7564 23.0352 14.1888C22.9904 14.3793 22.9904 14.5776 23.0352 14.7681C23.1413 15.0537 23.3044 14.9721 23.4268 15.1679C23.5492 15.3637 23.5574 15.6983 23.7042 15.9838C23.8511 16.2694 24.153 16.3265 24.4222 16.5468C24.8547 16.9058 24.6425 18.0726 25.3605 18.3173C25.4177 18.2194 26.4375 18.9537 26.6497 19.0272C26.863 19.0597 27.0633 19.15 27.229 19.2883C27.4166 19.4678 27.3595 19.7044 27.6451 19.8839C27.433 19.5086 27.5961 19.4841 27.8654 19.7044C28.1346 19.9247 28.1999 20.4469 28.6813 20.61C28.6813 20.1287 29.3503 20.9446 29.4972 20.9772C29.6441 21.0098 30.2642 20.7814 30.2478 20.9772C30.6385 21.3944 31.178 21.6407 31.7491 21.6626C31.7491 21.5075 32.4182 21.5973 32.565 21.5402C32.1081 21.4749 32.1979 21.2628 32.565 21.2138C33.0018 21.2186 33.4379 21.2513 33.8705 21.3117C33.6257 21.0506 34.3029 21.1649 34.4579 21.3852C34.6102 21.4476 34.7767 21.4673 34.9393 21.4423C34.6374 21.3362 34.9393 21.2138 35.0128 21.1812C35.2078 21.2119 35.4012 21.2528 35.5921 21.3036C36.1306 21.3036 36.0898 21.0343 36.359 20.708C36.359 20.5692 36.6038 20.4795 36.6609 20.6427C36.9365 20.7407 37.2333 20.763 37.5204 20.707C37.8075 20.651 38.0742 20.5189 38.2927 20.3245C38.4547 20.1503 38.6353 19.9943 38.8312 19.8594C38.9542 19.7865 39.0559 19.6825 39.1261 19.558C39.1962 19.4334 39.2324 19.2925 39.231 19.1496C39.0434 19.0027 39.3861 18.6845 39.4676 18.9293C39.5545 18.9432 39.6436 18.9322 39.7245 18.8975C39.8053 18.8629 39.8747 18.806 39.9245 18.7334C39.5982 18.6029 40.7405 18.3826 40.8384 18.2276C40.3325 18.1297 41.0913 17.8849 41.1566 17.8359C41.5482 17.5422 41.1566 17.3546 41.3279 17.02C41.4993 16.6855 42.0622 16.6121 42.2907 16.4163C42.4838 16.286 42.6396 16.1076 42.7427 15.8987C42.8457 15.6898 42.8924 15.4575 42.8782 15.225C42.9516 14.9558 43.18 14.8416 43.2045 14.4989C43.2453 14.0338 43.025 13.6422 43.2045 13.2424C43.5717 12.6549 44.0286 12.353 43.7512 11.5697ZM41.4258 10.5254C40.8792 11.0068 41.0913 11.6677 41.0424 12.2714C40.9931 12.478 40.9931 12.6932 41.0424 12.8997C41.0424 13.0302 41.2871 13.2016 41.2708 13.324C41.2545 13.4463 40.9771 13.634 40.8384 13.7972C40.5909 14.129 40.4259 14.515 40.357 14.9231C40.2917 15.3229 40.4223 15.4861 40.0796 15.6738C39.7369 15.8614 39.59 15.788 39.3289 16.0409C39.0802 16.3101 38.8739 16.6154 38.717 16.9466C38.5293 17.2485 38.3988 17.5749 38.0806 17.6646C37.7624 17.7544 37.5176 17.5993 37.1912 17.7788C36.6609 18.0807 36.1061 18.6682 35.5594 18.7742C35.3718 18.7742 35.1107 18.7253 34.9067 18.7742C34.6964 18.8012 34.4906 18.856 34.2948 18.9374C33.9437 18.9908 33.5892 19.0181 33.2341 19.019C32.3447 19.0924 31.5125 18.9129 30.6068 18.9129C30.4681 18.8232 30.3294 18.5213 30.1826 18.3908C30.0022 18.2205 29.792 18.0849 29.5625 17.991C29.1545 17.8604 28.6895 17.9175 28.3223 17.6156C27.9551 17.3138 27.9796 16.9058 27.6614 16.5794C27.3022 16.2161 26.9207 15.8754 26.5191 15.5596C26.3886 15.4535 25.9806 15.3556 25.899 15.2495C25.8174 15.1434 25.899 14.8416 25.8582 14.6784C25.8369 14.3561 25.7479 14.042 25.5972 13.7564C25.4829 13.5443 25.0587 13.2587 25.0015 13.071C24.9444 12.8834 25.0015 12.9405 25.1076 12.7283C25.208 12.431 25.263 12.1201 25.2708 11.8064C25.244 11.6251 25.1975 11.4472 25.1321 11.276C25.0831 11.072 25.0668 10.8436 25.026 10.6233C24.9852 10.403 24.8139 10.2725 24.8139 10.1256C24.8139 9.97872 25.1484 9.71763 25.2708 9.52997C25.4675 9.08582 25.5862 8.61108 25.6216 8.12661C25.7042 7.86269 25.721 7.58259 25.6706 7.31069C25.6298 6.96801 25.5972 7.11488 25.793 6.8701C26.1357 6.43767 26.6578 6.20106 26.87 5.62176C26.87 5.62176 26.9434 5.0343 26.9679 5.01798C26.9924 5.00167 27.4411 4.97719 27.6451 4.91192C28.1183 4.75689 28.257 4.45501 28.5589 4.14496C28.7139 3.98994 28.9098 3.90019 29.0811 3.74516C29.2524 3.59014 29.2116 3.43512 29.3911 3.36984C29.5706 3.30457 29.9786 3.46775 30.1581 3.45144C30.4824 3.44279 30.7994 3.35303 31.0801 3.19034C30.5497 3.14139 31.2433 2.64368 31.4799 2.92925C31.9286 2.92925 31.9368 2.67632 32.2958 2.48866C32.6548 2.301 32.6221 2.44786 32.9404 2.57841C33.3001 2.71645 33.6811 2.79099 34.0663 2.79871C34.3029 2.79871 34.719 2.54577 34.8822 2.60289C35.1891 2.78831 35.486 2.98985 35.7716 3.20666C36.0977 3.39419 36.4538 3.52393 36.8241 3.59014C37.1831 3.63094 37.4115 3.46775 37.64 3.74516C37.8685 4.02257 37.7542 4.29182 38.0724 4.56107C38.3906 4.83033 38.5538 4.78137 38.7578 4.94455C38.9618 5.10773 38.9291 5.22196 39.0597 5.31171C39.1902 5.40146 39.4024 5.40146 39.6063 5.49121C39.9572 5.6544 39.7858 5.49121 39.9001 5.82574C39.9776 6.21484 40.1094 6.59112 40.2917 6.94354C40.4733 7.1575 40.6319 7.38995 40.7649 7.63706C40.8768 7.8937 40.9244 8.17377 40.9036 8.45297C40.8948 8.92011 40.961 9.38564 41.0995 9.83186C41.1729 9.94609 41.5808 10.3785 41.4258 10.5254Z" fill="url(#paint25_linear_11_435)"/>
<path d="M38.8149 8.02055C38.5512 7.60548 38.175 7.27389 37.7301 7.06443C37.2851 6.85497 36.7899 6.77626 36.3019 6.83748C35.9021 4.16945 30.5905 4.17761 30.2234 6.83748C29.7412 6.76023 29.247 6.83353 28.808 7.04738C28.369 7.26123 28.0066 7.60523 27.7702 8.03251C27.5338 8.45979 27.4349 8.94956 27.487 9.43508C27.5391 9.92061 27.7396 10.3783 28.0612 10.7457C27.7618 11.1903 27.5959 11.7113 27.5832 12.2472C27.5704 12.7831 27.7115 13.3114 27.9895 13.7697C28.2676 14.2279 28.671 14.597 29.1522 14.8332C29.6334 15.0695 30.1721 15.1629 30.7048 15.1027C31.5207 17.2811 34.9965 17.2975 35.8205 15.1027C36.3532 15.1629 36.8919 15.0695 37.3731 14.8332C37.8543 14.597 38.2577 14.2279 38.5358 13.7697C38.8139 13.3114 38.9549 12.7831 38.9422 12.2472C38.9294 11.7113 38.7636 11.1903 38.4641 10.7457C38.7727 10.3703 38.9692 9.91554 39.0313 9.43357C39.0933 8.95159 39.0184 8.46188 38.8149 8.02055ZM34.5559 7.44126L34.8333 8.25717H35.6492L35.0046 8.74671L35.2576 9.52183L34.5967 9.08124L33.9766 9.52183L34.1887 8.74671L33.5115 8.23269H34.3274L34.5559 7.44126ZM33.8623 11.7737L33.2178 11.3332L32.5732 11.7737L32.8098 11.0068L32.1489 10.4928H32.9648L33.2015 9.67685L33.4544 10.4928H34.2703L33.5931 11.0068L33.8623 11.7737ZM32.9812 6.1358L33.2178 5.31989L33.4707 6.1358H34.2866L33.6094 6.6335L33.846 7.40862L33.2015 6.96803L32.5569 7.40862L32.7935 6.6335L32.1326 6.1358H32.9812ZM31.741 8.24901L31.9613 7.4331L32.2224 8.24901H33.0383L32.3366 8.76303L32.5569 9.56263L31.896 9.12203L31.2759 9.56263L31.5125 8.78751L30.8353 8.27349L31.741 8.24901ZM29.1137 8.24901L29.3422 7.4331L29.5951 8.24901H30.411L29.7094 8.76303L29.9623 9.53815L29.2932 9.09756L28.6732 9.53815L28.9098 8.76303L28.2326 8.24901H29.1137ZM29.742 13.1445L29.9949 13.8951L29.2932 13.5035L28.6732 13.9277L28.9098 13.1771L28.2326 12.6631H29.0485L29.2769 11.8472L29.5299 12.6631H30.3458L29.742 13.1445ZM30.5579 11.3005L29.9215 11.7411L30.1744 10.9742L29.4972 10.4601H30.3131L30.5334 9.64422L30.7945 10.4601H31.6104L30.9169 10.9742L31.1535 11.7411L30.5579 11.3005ZM31.333 13.8951L31.5696 13.1445L30.8924 12.6305H31.7083L31.9286 11.8145L32.1897 12.6305H33.0056L32.304 13.1445L32.5569 13.8951L31.896 13.4708L31.333 13.8951ZM33.8868 16.0981L33.2423 15.6575L32.5977 16.0981L32.8343 15.3311L32.1734 14.8334H32.9893L33.2259 14.0175L33.4789 14.8334H34.2948L33.6176 15.3311L33.8868 16.0981ZM35.2412 13.8951L34.5803 13.4708L33.9603 13.8951L34.1969 13.1445L33.5197 12.6305H34.3356L34.5559 11.8145L34.8333 12.6305H35.6492L34.9557 13.1445L35.2412 13.8951ZM35.8205 11.3332L35.176 11.7737L35.4126 11.0068L34.7517 10.4928H35.5676L35.8042 9.67685L36.0571 10.4928H36.8731L36.1714 11.0068L36.4161 11.7737L35.8205 11.3332ZM37.5829 13.1771L37.8195 13.9277L37.1586 13.5035L36.5385 13.9277L36.7751 13.1771L36.1143 12.6631H36.9302L37.1505 11.8472L37.4279 12.6631H38.2438L37.5829 13.1771ZM37.5829 8.76303L37.8195 9.53815L37.1586 9.09756L36.5385 9.53815L36.7996 8.74671L36.1387 8.23269H36.9547L37.1749 7.41678L37.4524 8.23269H38.2683L37.5829 8.76303Z" fill="url(#paint26_linear_11_435)"/>
<path d="M30.4192 25.7258C30.0928 25.7258 29.2851 25.2934 28.9913 25.6034C29.489 25.6034 29.9541 26.1256 30.4192 26.297C30.4499 26.1078 30.4499 25.915 30.4192 25.7258Z" fill="url(#paint27_linear_11_435)"/>
<path d="M33.8705 26.6967C33.6992 25.9706 32.818 25.8808 32.2387 25.6524C31.863 25.572 31.5328 25.3499 31.3167 25.0323C31.1356 24.748 30.9366 24.4755 30.7211 24.2163C30.46 23.8818 30.5253 23.686 30.0357 23.7023C29.6599 23.7302 29.2989 23.8599 28.9914 24.0776C28.6915 24.3218 28.4765 24.6544 28.3769 25.028C28.2772 25.4017 28.2981 25.7972 28.4365 26.1582C28.7874 25.1465 29.3911 25.3423 30.2642 25.5136C30.6232 25.5871 30.9251 25.7095 31.2759 25.7992C31.7315 25.8598 32.1799 25.9664 32.614 26.1174C32.8425 26.2235 32.973 26.6314 33.1035 26.8273C33.2341 27.0231 34.0255 27.3413 33.8705 26.6967Z" fill="url(#paint28_linear_11_435)"/>
<path d="M6.08873 38.5519C5.34077 38.3418 4.63431 38.0051 4 37.5565C4.01639 38.0795 4.14509 38.5928 4.37738 39.0616C4.60967 39.5304 4.9401 39.9437 5.34625 40.2735C6.10505 40.7875 7.03519 40.812 7.79399 41.2281C7.71785 40.8386 7.68501 40.4418 7.69608 40.0451C7.31788 39.4008 6.75903 38.8817 6.08873 38.5519Z" fill="url(#paint29_linear_11_435)"/>
<path d="M9.71137 39.5881C9.71459 39.6856 9.69857 39.7828 9.66422 39.8741C9.62988 39.9654 9.57789 40.0491 9.51122 40.1203C9.44454 40.1915 9.3645 40.2489 9.27564 40.2892C9.18679 40.3295 9.09088 40.3519 8.99337 40.3551C8.89587 40.3583 8.79869 40.3423 8.70738 40.3079C8.61606 40.2736 8.53241 40.2216 8.46119 40.1549C8.38997 40.0883 8.33258 40.0082 8.2923 39.9194C8.25202 39.8305 8.22963 39.7346 8.22642 39.6371C8.21993 39.4402 8.29192 39.2487 8.42658 39.1049C8.56123 38.9611 8.7475 38.8766 8.94442 38.8701C9.14134 38.8636 9.33277 38.9356 9.4766 39.0703C9.62043 39.2049 9.70488 39.3912 9.71137 39.5881Z" fill="url(#paint30_linear_11_435)"/>
<path d="M10.6741 42.4193C10.6741 43.3168 9.22999 43.3984 9.19735 42.4683C9.18363 42.3654 9.1916 42.2609 9.22076 42.1613C9.24991 42.0618 9.2996 41.9695 9.36662 41.8903C9.43364 41.8111 9.51651 41.7469 9.60987 41.7017C9.70324 41.6565 9.80504 41.6314 9.90871 41.628C10.0124 41.6245 10.1156 41.6429 10.2118 41.6818C10.3079 41.7207 10.3949 41.7793 10.467 41.8538C10.5391 41.9284 10.5948 42.0172 10.6305 42.1146C10.6661 42.212 10.681 42.3158 10.6741 42.4193Z" fill="url(#paint31_linear_11_435)"/>
<path d="M12.3631 48.8651C12.3631 49.7463 10.9434 49.9176 10.821 48.9956C10.7698 48.8768 10.7476 48.7476 10.7561 48.6185C10.7647 48.4895 10.8038 48.3643 10.8703 48.2533C10.9367 48.1423 11.0286 48.0488 11.1383 47.9803C11.2481 47.9118 11.3725 47.8704 11.5014 47.8595C11.6303 47.8486 11.7599 47.8685 11.8796 47.9175C11.9993 47.9666 12.1056 48.0434 12.1898 48.1416C12.274 48.2398 12.3336 48.3566 12.3637 48.4824C12.3938 48.6082 12.3936 48.7394 12.3631 48.8651Z" fill="url(#paint32_linear_11_435)"/>
<path d="M8.37328 46.7436C8.35489 46.9115 8.27519 47.0666 8.14946 47.1793C8.02374 47.292 7.86084 47.3543 7.692 47.3543C7.52315 47.3543 7.36026 47.292 7.23453 47.1793C7.10881 47.0666 7.02911 46.9115 7.01071 46.7436C7.02911 46.5758 7.10881 46.4207 7.23453 46.308C7.36026 46.1953 7.52315 46.133 7.692 46.133C7.86084 46.133 8.02374 46.1953 8.14946 46.308C8.27519 46.4207 8.35489 46.5758 8.37328 46.7436Z" fill="url(#paint33_linear_11_435)"/>
<path d="M7.26362 42.3296C7.26362 42.3296 7.47575 42.4357 7.73684 42.5662C7.72722 42.5287 7.72535 42.4896 7.73133 42.4513C7.73731 42.413 7.75102 42.3763 7.77163 42.3435C7.79224 42.3106 7.81932 42.2824 7.85121 42.2603C7.8831 42.2383 7.91914 42.223 7.95714 42.2154C8.04202 42.2315 8.12435 42.2589 8.20191 42.297C8.18567 42.1387 8.11424 41.9913 8.00015 41.8804C7.88607 41.7696 7.73661 41.7024 7.57797 41.6908C7.41934 41.6791 7.26165 41.7236 7.13256 41.8166C7.00348 41.9095 6.91122 42.0449 6.87198 42.1991C7.00578 42.2321 7.13674 42.2758 7.26362 42.3296Z" fill="url(#paint34_linear_11_435)"/>
<path d="M13.0811 46.9313C12.9995 46.5805 13.1382 45.7646 12.7384 45.6748C12.3386 45.5851 12.1265 46.2378 12.0449 46.5479C12.0864 46.6992 12.1785 46.8316 12.306 46.9232L12.3712 46.8089L12.8608 47.0211C12.975 47.0456 13.1055 47.0211 13.0811 46.9313Z" fill="url(#paint35_linear_11_435)"/>
<path d="M10.2254 46.6866C10.2836 46.6172 10.3261 46.5361 10.3501 46.4488C10.374 46.3615 10.3788 46.27 10.3641 46.1807C10.2208 46.0213 10.031 45.9111 9.82159 45.8657C9.61215 45.8203 9.39373 45.842 9.19734 45.9278C9.1304 46.0188 9.0943 46.1289 9.0943 46.2419C9.0943 46.3549 9.1304 46.465 9.19734 46.556C9.54554 46.5156 9.89835 46.5604 10.2254 46.6866Z" fill="url(#paint36_linear_11_435)"/>
<path d="M10.6007 45.2914V45.1364C10.7985 45.0621 11.0119 45.0397 11.2208 45.0711C11.0669 44.6766 11.0001 44.2536 11.025 43.8309C10.9242 43.8004 10.8182 43.7911 10.7137 43.8038C10.6092 43.8165 10.5084 43.8508 10.4179 43.9045C10.3273 43.9582 10.2489 44.0302 10.1877 44.1158C10.1265 44.2015 10.0837 44.299 10.0622 44.402C10.1275 44.5978 10.2172 44.8345 10.3152 45.12C10.3935 45.2015 10.492 45.2606 10.6007 45.2914Z" fill="url(#paint37_linear_11_435)"/>
<path d="M14.2968 47.731C14.2968 47.8824 14.2366 48.0277 14.1295 48.1348C14.0224 48.2419 13.8772 48.3021 13.7257 48.3021C13.5742 48.3021 13.4289 48.2419 13.3218 48.1348C13.2147 48.0277 13.1545 47.8824 13.1545 47.731C13.1545 47.5795 13.2147 47.4342 13.3218 47.3271C13.4289 47.22 13.5742 47.1598 13.7257 47.1598C13.8772 47.1598 14.0224 47.22 14.1295 47.3271C14.2366 47.4342 14.2968 47.5795 14.2968 47.731Z" fill="url(#paint38_linear_11_435)"/>
<path d="M9.38499 44.0186C9.38499 44.1895 9.31708 44.3534 9.1962 44.4743C9.07532 44.5952 8.91138 44.6631 8.74042 44.6631C8.56947 44.6631 8.40552 44.5952 8.28464 44.4743C8.16376 44.3534 8.09586 44.1895 8.09586 44.0186C8.09586 43.8476 8.16376 43.6837 8.28464 43.5628C8.40552 43.4419 8.56947 43.374 8.74042 43.374C8.91138 43.374 9.07532 43.4419 9.1962 43.5628C9.31708 43.6837 9.38499 43.8476 9.38499 44.0186Z" fill="url(#paint39_linear_11_435)"/>
<path d="M12.6813 48.4245C12.6114 48.4255 12.5422 48.4393 12.4773 48.4653C12.5452 48.6275 12.5696 48.8046 12.5481 48.9792C12.5267 49.1538 12.4601 49.3197 12.3549 49.4607C13.1545 50.04 13.6685 48.4245 12.6813 48.4245Z" fill="url(#paint40_linear_11_435)"/>
<path d="M12.1591 50.6601C12.1591 50.831 12.0912 50.9949 11.9703 51.1158C11.8495 51.2367 11.6855 51.3046 11.5146 51.3046C11.3436 51.3046 11.1797 51.2367 11.0588 51.1158C10.9379 50.9949 10.87 50.831 10.87 50.6601C10.87 50.4891 10.9379 50.3251 11.0588 50.2043C11.1797 50.0834 11.3436 50.0155 11.5146 50.0155C11.6855 50.0155 11.8495 50.0834 11.9703 50.2043C12.0912 50.3251 12.1591 50.4891 12.1591 50.6601Z" fill="url(#paint41_linear_11_435)"/>
<path d="M12.2162 49.6076C12.0729 49.7305 11.8973 49.8098 11.7103 49.836C11.864 49.8773 12.0022 49.9626 12.108 50.0814C12.2139 50.2002 12.2826 50.3474 12.3059 50.5048C12.3291 50.6622 12.3058 50.8229 12.2389 50.9673C12.172 51.1116 12.0643 51.2332 11.9291 51.3171C11.794 51.4011 11.6372 51.4437 11.4782 51.4397C11.3191 51.4356 11.1647 51.3852 11.0339 51.2946C10.9032 51.204 10.8018 51.0771 10.7422 50.9295C10.6826 50.782 10.6674 50.6203 10.6986 50.4643C10.0369 51.2229 9.604 52.1537 9.45026 53.1486C10.2692 52.9756 11.0177 52.5614 11.5993 51.9594C12.181 51.3574 12.5691 50.5952 12.7139 49.7707C12.534 49.7764 12.3578 49.7187 12.2162 49.6076Z" fill="url(#paint42_linear_11_435)"/>
<path d="M9.1239 40.5672C8.97122 41.0412 8.9022 41.5382 8.91993 42.0359C9.44211 41.4484 10.3233 41.4239 10.8781 40.8773C11.4516 40.1185 11.7611 39.193 11.7593 38.2419C11.229 38.8293 10.3151 38.5111 9.72768 39.0578C9.82252 39.1893 9.8826 39.3427 9.90235 39.5036C9.9221 39.6646 9.90088 39.8279 9.84066 39.9785C9.78044 40.129 9.68316 40.2619 9.55786 40.3649C9.43256 40.4678 9.28329 40.5374 9.1239 40.5672Z" fill="url(#paint43_linear_11_435)"/>
<path d="M14.7537 47.5596C15.3901 47.5596 16.4508 46.4989 16.7445 46.0257C17.2748 45.2098 17.2096 44.1001 17.7154 43.2271C17.0219 43.4637 15.7654 44.0022 15.4717 44.7284C15.2677 45.2098 15.3901 45.8135 15.2187 46.3602C15.0584 46.8169 14.8025 47.2341 14.4681 47.5841C14.4718 47.6057 14.4718 47.6277 14.4681 47.6493C14.5569 47.6021 14.6538 47.5716 14.7537 47.5596Z" fill="url(#paint44_linear_11_435)"/>
<path d="M10.5844 48.865C10.5857 48.6706 10.6435 48.4807 10.7507 48.3185C10.8578 48.1563 11.0098 48.0287 11.1882 47.9512C10.4471 47.9074 9.71322 48.1175 9.10762 48.5468C8.48753 49.0364 8.12037 49.7707 7.4758 50.2358C8.05569 50.4252 8.67481 50.4609 9.27262 50.3393C9.87043 50.2177 10.4265 49.9431 10.8863 49.5423C10.7036 49.3629 10.5957 49.1209 10.5844 48.865Z" fill="url(#paint45_linear_11_435)"/>
<path d="M14.3539 47.2822C15.5778 45.8462 15.1698 43.6351 15.0638 41.8972C14.0928 43.2598 12.51 45.324 13.2932 47.0945C13.4627 46.9916 13.6638 46.9539 13.859 46.9885C14.0542 47.023 14.2301 47.1274 14.3539 47.2822Z" fill="url(#paint46_linear_11_435)"/>
<path d="M8.4875 43.2189C7.48385 42.5154 6.24865 42.2234 5.03619 42.403C5.43599 42.7865 5.4931 43.6432 5.9337 43.9043C6.15399 44.0348 6.57827 43.9043 6.81488 43.9043C7.17981 43.9083 7.54339 43.9493 7.90004 44.0267C7.89464 43.846 7.9494 43.6686 8.05573 43.5224C8.16206 43.3762 8.31393 43.2695 8.4875 43.2189Z" fill="url(#paint47_linear_11_435)"/>
<path d="M9.96433 35.5902C9.96991 35.0666 10.0412 34.5458 10.1765 34.0399C9.43732 34.4869 8.86434 35.163 8.54465 35.9655C8.83479 36.6587 8.95508 37.4112 8.89549 38.1603C9.26025 37.8696 9.57929 37.5258 9.84195 37.1404C10.0007 36.6398 10.0426 36.1095 9.96433 35.5902Z" fill="url(#paint48_linear_11_435)"/>
<path d="M7.59818 38.4948C7.77633 38.6414 7.91631 38.8289 8.00613 39.0414C8.1851 38.7219 8.38403 38.414 8.60175 38.1195C8.69314 37.2296 8.51097 36.333 8.07957 35.5493C7.57784 34.8537 7.14086 34.1136 6.77411 33.3382C6.26795 34.2048 6.06686 35.216 6.20297 36.2102C6.4552 37.0829 6.93703 37.8719 7.59818 38.4948Z" fill="url(#paint49_linear_11_435)"/>
<path d="M21.0199 51.1251L20.8078 51.0272C20.8245 50.9168 20.849 50.8078 20.8812 50.7008C20.7496 50.6897 20.6188 50.6707 20.4896 50.6437C20.4896 50.5295 20.563 50.4071 20.6119 50.2929C20.4181 50.2416 20.2374 50.1498 20.0816 50.0236V49.8605C19.7634 49.9747 19.437 49.9828 19.1107 50.1052L19.3228 50.2521C19.0209 50.0726 18.7598 49.836 18.4661 50.195L18.7272 50.4316C18.5782 50.2882 18.3893 50.1935 18.1853 50.16C17.9813 50.1265 17.7719 50.1558 17.5849 50.2439L17.2585 50.1215C17.2585 50.1215 17.0627 50.4071 16.9811 50.5132C17.1079 50.5629 17.2228 50.6387 17.3184 50.7357C17.414 50.8327 17.4881 50.9487 17.536 51.0762C17.7073 51.1578 18.0337 51.2557 18.1968 51.0762C18.3158 51.131 18.4452 51.1595 18.5762 51.1595C18.7072 51.1595 18.8367 51.131 18.9556 51.0762L18.8088 50.9048C18.9442 51.0312 19.1102 51.1202 19.2904 51.1632C19.4707 51.2061 19.659 51.2014 19.8368 51.1496C19.7793 51.1072 19.7273 51.0578 19.6818 51.0027C19.8006 51.1056 19.9398 51.182 20.0903 51.227C20.2408 51.272 20.3991 51.2846 20.5548 51.2638C20.4495 51.1628 20.3588 51.0474 20.2856 50.9211C20.4224 51.1196 20.6078 51.2797 20.8241 51.3862L20.8975 51.2393L20.8567 51.1822L21.0199 51.1251Z" fill="url(#paint50_linear_11_435)"/>
<path d="M16.5569 52.6183C15.8307 52.6183 15.7981 51.8024 16.2468 51.4026C15.6349 51.4026 15.2922 52.3245 14.7456 51.8105C14.6524 51.7108 14.5857 51.5894 14.5517 51.4573C14.5176 51.3252 14.5171 51.1867 14.5504 51.0544C14.5837 50.9221 14.6496 50.8002 14.7421 50.7C14.8347 50.5998 14.9509 50.5243 15.0801 50.4806C15.0311 50.3582 14.6232 50.4806 14.5253 50.4806C14.3688 50.4828 14.2163 50.4314 14.0931 50.3349C13.9699 50.2384 13.8834 50.1027 13.8481 49.9502C13.6441 49.0201 14.5742 48.8406 15.2188 49.1343L15.2677 49.0772C15.273 49.0311 15.273 48.9846 15.2677 48.9385C15.0148 48.4979 13.8073 48.6611 13.7338 49.1751H13.7909C13.693 49.1751 13.2361 49.4525 13.4483 49.526C13.3096 49.526 12.975 49.9666 13.1056 49.9829C12.2897 50.3011 13.1056 51.4026 13.5217 51.6147L13.9623 51.4515C13.3504 51.7942 13.2769 52.145 13.8644 52.6264C14.4518 53.1078 14.6803 53.0425 15.0067 52.4796C14.1907 54.3317 17.8542 53.4913 17.4544 51.9655C17.3732 52.1421 17.2481 52.2949 17.0909 52.4092C16.9338 52.5235 16.7499 52.5955 16.5569 52.6183Z" fill="url(#paint51_linear_11_435)"/>
<path d="M15.9041 48.7263C16.0236 48.7116 16.1447 48.7213 16.2603 48.7548C16.3759 48.7883 16.4834 48.8449 16.5765 48.9212C16.6696 48.9975 16.7462 49.0918 16.8017 49.1986C16.8572 49.3053 16.8905 49.4222 16.8996 49.5422C16.8996 50.2521 16.1408 49.9094 16.0102 50.3581C16.1862 50.3852 16.3537 50.4522 16.4998 50.554L16.4508 50.3581C16.6302 50.3901 16.8074 50.4337 16.9811 50.4887C17.1218 50.0988 17.3168 49.7307 17.5604 49.3954C17.6012 49.2811 17.6012 49.1016 17.4462 49.0609C17.7155 48.8242 17.2178 48.3102 17.0464 48.196C16.8751 48.0818 16.1734 47.8207 16.2305 48.1062C15.8389 47.943 15.2433 48.4408 15.2677 48.8324C15.2677 48.8324 15.2677 48.9629 15.2677 49.0527C15.4344 48.8718 15.66 48.7561 15.9041 48.7263Z" fill="url(#paint52_linear_11_435)"/>
<path d="M14.7619 51.2883C14.9658 52.1042 15.4146 51.3699 15.8634 51.2149L15.6186 51.0925C15.5043 50.9375 15.333 50.8396 15.2188 50.6764C14.7456 50.864 14.7211 51.1251 14.7619 51.2883Z" fill="url(#paint53_linear_11_435)"/>
<path d="M15.9694 50.6356L15.896 51.1985C16.0876 51.1414 16.2918 51.1414 16.4834 51.1985C16.5061 51.1427 16.5252 51.0855 16.5405 51.0272C16.4799 50.924 16.3973 50.8355 16.2986 50.7678C16.1999 50.7001 16.0875 50.655 15.9694 50.6356Z" fill="url(#paint54_linear_11_435)"/>
<path d="M14.5008 49.1996C14.1907 49.1996 14.0112 49.7544 14.1418 50.0155C14.2723 50.2766 14.7047 50.1868 14.9985 50.2031C14.9529 49.9281 14.9839 49.6458 15.0882 49.3872C14.9087 49.2819 14.7081 49.2178 14.5008 49.1996Z" fill="url(#paint55_linear_11_435)"/>
<path d="M16.8098 50.7335C16.924 51.1904 15.6512 52.3653 16.5977 52.3653C17.4054 52.3572 17.642 50.9456 16.8098 50.7335Z" fill="url(#paint56_linear_11_435)"/>
<path d="M15.2433 49.942C15.2314 50.114 15.2651 50.286 15.3411 50.4407C15.417 50.5955 15.5324 50.7274 15.6757 50.8232C15.6757 50.5458 15.6757 50.1868 15.9531 50.0073C16.2305 49.8278 16.5079 50.0073 16.614 49.7054C16.8832 48.8732 15.2269 48.7834 15.2433 49.942Z" fill="url(#paint57_linear_11_435)"/>
<path d="M20.7588 57.1629C20.5517 56.1713 20.2085 55.213 19.7389 54.3154C19.196 53.4855 18.5458 52.7311 17.8052 52.0716C17.8052 52.1858 17.8052 52.2919 17.7481 52.4061C18.773 53.2305 19.4819 54.3833 19.7552 55.6698C19.845 56.2817 19.592 56.8692 20.0571 57.3506C20.5222 57.832 20.9301 57.8483 20.7588 57.1629Z" fill="url(#paint58_linear_11_435)"/>
<path d="M12.5915 50.9864C12.3574 51.5516 11.9773 52.0443 11.4901 52.4143C11.3232 53.1226 11.3979 53.8664 11.7022 54.5275C12.1051 54.1954 12.4359 53.7846 12.6744 53.3202C12.9129 52.8559 13.0541 52.3477 13.0893 51.8268C12.8741 51.5789 12.7055 51.2942 12.5915 50.9864Z" fill="url(#paint59_linear_11_435)"/>
<path d="M14.7537 47.7554C14.6028 47.7615 14.4599 47.8248 14.3539 47.9323C14.2478 48.0399 14.1866 48.1837 14.1826 48.3347C14.5078 48.1539 14.8714 48.0532 15.2433 48.0409C15.1918 47.9564 15.1201 47.8861 15.0346 47.8362C14.9492 47.7863 14.8526 47.7586 14.7537 47.7554Z" fill="url(#paint60_linear_11_435)"/>
<path d="M13.9949 48.4571C13.2688 48.7182 12.5426 47.7881 12.6405 47.1353L12.4936 47.0946C12.4039 47.8615 11.7756 47.2741 11.8083 46.7355C11.9045 46.2116 12.1414 45.7237 12.4936 45.324C13.2688 44.092 12.5507 42.6152 12.5752 41.3179C11.9969 41.778 11.5811 42.4112 11.3887 43.1248C11.1964 43.8384 11.2376 44.5948 11.5064 45.2832C11.6125 45.528 12.1265 46.8498 11.5961 46.964C10.9108 47.1109 10.9679 45.6178 11.0087 45.2832C10.9385 45.2712 10.8667 45.2712 10.7965 45.2832C10.8455 45.9278 10.8373 46.197 10.2825 45.683C9.91963 44.952 9.7245 44.1492 9.71138 43.3332C9.42581 43.2598 8.61806 42.7539 8.74044 42.3704C8.63116 41.7469 8.63116 41.1092 8.74044 40.4857L8.6099 40.4367C8.6099 40.7141 8.66701 41.6198 8.25906 41.3424C7.8511 41.065 8.0714 39.8901 8.09588 39.6208L8.05508 39.6861C7.97109 40.4649 8.08038 41.2523 8.37329 41.9788C8.66701 42.6234 8.66701 42.5744 8.05508 42.4194C7.8919 42.4683 8.96074 43.1619 9.00154 43.2353C10.6742 43.6432 8.64254 45.9523 8.02244 44.3613C7.27181 44.1899 5.50944 43.9533 5.20755 44.9813C6.12137 44.7855 6.61908 45.6504 7.32076 46.0175C7.47578 45.9299 7.65353 45.8909 7.831 45.9054C8.00847 45.92 8.17749 45.9875 8.31617 46.0991C9.05049 45.9115 9.57267 45.4219 10.3233 45.887C10.617 46.0747 11.8735 47.0293 11.8572 47.4046C11.8409 47.7799 10.9108 47.1761 10.7231 47.0946C10.3983 46.9226 10.039 46.8259 9.67173 46.8118C9.30449 46.7977 8.93878 46.8664 8.60174 47.013C8.56766 47.1332 8.50842 47.2447 8.42794 47.3403C8.34746 47.4358 8.24758 47.5132 8.13493 47.5672C8.02228 47.6212 7.89943 47.6506 7.77454 47.6535C7.64965 47.6565 7.52556 47.6328 7.41051 47.5841C7.11678 47.7391 6.83121 47.8778 6.5946 47.9757C7.24729 48.2871 7.93884 48.5094 8.6507 48.6366C8.88722 48.3593 9.17622 48.1316 9.50107 47.9663C9.82592 47.8011 10.1802 47.7017 10.5436 47.6738C10.9201 47.625 11.3013 47.625 11.6777 47.6738C11.7185 47.6738 12.4039 47.9105 12.0122 47.9676C12.186 48.0384 12.336 48.1573 12.4447 48.3103C12.645 48.2384 12.8655 48.2477 13.059 48.3361C13.2526 48.4245 13.404 48.5851 13.4809 48.7835H13.6604C13.7591 48.6623 13.8714 48.5528 13.9949 48.4571Z" fill="url(#paint61_linear_11_435)"/>
<path d="M61.9786 40.1103L62.1989 40.6406C62.5983 39.7933 63.0968 38.9963 63.6839 38.2663L63.5697 38.3398L63.6268 38.2419C62.8992 38.8229 62.1147 39.3286 61.2851 39.7513L61.8481 39.9716L59.5635 42.2969C59.8973 41.4826 60.3303 40.7125 60.8527 40.0042L60.7629 40.0532L60.8608 39.9063C60.1482 40.5305 59.3715 41.0775 58.5436 41.5381L59.1148 41.734C58.4896 42.6222 57.7731 43.4426 56.9771 44.1817C55.7288 45.6095 54.4804 47.0455 53.2239 48.4734L57.4748 42.762L57.6053 42.9823C58.4702 40.9262 60.1999 39.1394 61.538 37.3688L61.8073 37.8421C62.0975 36.9517 62.489 36.0975 62.974 35.2964L62.8843 35.3699L62.9577 35.2312C62.2953 35.9118 61.5685 36.5266 60.7874 37.067L61.3993 37.222L58.2989 41.3831C58.4136 41.0626 58.5642 40.7561 58.7476 40.4693L58.5681 40.608L57.6217 41.3831L59.3432 38.7722L59.6696 39.2536C59.8853 38.3344 60.2228 37.4481 60.6732 36.6182L60.5426 36.7324V36.6264C59.9582 37.3425 59.2929 37.9887 58.56 38.5519L59.1556 38.658L57.9562 40.4611C58.0997 39.7157 58.3383 38.9918 58.666 38.3071L58.5681 38.405V38.2337C58.1832 38.8366 57.7194 39.3854 57.1892 39.8655L59.4085 35.6717L59.7593 36.1042L60.4039 33.6564L60.4447 33.4443C59.9317 34.1998 59.335 34.895 58.666 35.5167L59.2698 35.5738L52.9547 47.5025L57.1158 38.1195L57.4748 38.5274C57.5725 37.6052 57.7723 36.6967 58.0704 35.8186L57.997 35.9084V35.7615C57.5217 36.5684 56.949 37.3137 56.2917 37.9808H56.9118L52.4896 47.9675L55.0842 40.2816L55.5329 40.657C55.5133 39.7384 55.5844 38.8201 55.7451 37.9155V37.9808V37.8176C55.3689 38.681 54.9011 39.5017 54.3499 40.2653L54.921 40.2082L52.1387 48.1144L53.7706 41.7666L54.2356 42.1174C54.1646 41.1761 54.1919 40.23 54.3172 39.2944L54.2519 39.4168V39.3189C53.9153 40.1744 53.4944 40.9944 52.9955 41.7666L53.5829 41.6769C53.0444 43.839 52.4977 46.0093 51.9511 48.2041C52.0884 48.2243 52.2246 48.2515 52.359 48.2857C52.6424 48.356 52.9164 48.4601 53.1749 48.5958C53.4382 48.7351 53.6823 48.9078 53.9011 49.1098L59.3677 45.0302L59.4901 45.6014C60.0314 44.8462 60.6554 44.1538 61.3504 43.5371H61.2525L61.3667 43.4066C60.543 43.8798 59.6667 44.255 58.7558 44.5244L59.2616 44.8344L54.1948 48.5631L60.8037 42.5662L60.9914 43.1129C61.4441 42.2951 61.9918 41.5338 62.6232 40.8446L62.3866 40.9588L60.1347 42.199L60.6813 42.452L58.1275 44.6468C58.6194 43.76 59.2197 42.9378 59.9144 42.199L61.9786 40.1103ZM55.688 44.8671L57.3198 42.5172L57.3687 42.607L55.688 44.8671ZM57.7441 40.8446C57.4341 41.3658 57.0461 41.8363 56.5936 42.2398L56.7894 42.2888L53.7706 46.7926L57.4911 40.5672L57.7441 40.8446ZM56.9281 40.3877H57.2953L53.5992 46.6621L56.9281 40.3877ZM57.0342 42.3377L57.2382 42.3867L53.5666 47.5922L57.0342 42.3377ZM54.0153 47.9104L57.1974 44.2959L57.5074 44.4183L53.5747 48.4163L54.0153 47.9104ZM54.0153 48.302L57.6543 44.5815L57.8175 44.9568L54.0153 48.302ZM57.638 43.7901L59.2698 41.9461L59.4901 42.403C58.9357 42.9313 58.3161 43.3865 57.6461 43.7574L57.638 43.7901Z" fill="url(#paint62_linear_11_435)"/>
<path d="M50.5069 56.0124L50.3927 55.8656L50.254 55.6534L50.6293 54.144L50.4335 54.0624L50.0908 55.4086L49.9358 55.172L50.3356 54.0134L50.1398 53.9074C49.9804 54.3052 49.8415 54.711 49.7237 55.1231H49.6013L49.5442 55.0252L50.0745 53.8339L49.895 53.7034C49.7073 54.1195 49.487 54.5193 49.3402 54.9517H49.2667V54.8783L49.9032 53.6707C49.7179 53.5316 49.5507 53.3699 49.4055 53.1894L48.459 54.4377V54.2582L49.4381 53.1404C49.3574 53.0424 49.2838 52.9388 49.2178 52.8304C48.8262 53.222 48.459 53.6463 48.0429 54.0134V53.8502L49.2178 52.814C49.1416 52.6835 49.0764 52.553 49.022 52.4224C48.6303 52.708 47.6757 53.1567 47.4391 53.5973C47.1862 53.532 46.9414 53.4505 46.6885 53.3689L43.5717 55.6453L44.6487 55.8248L44.3223 56.1185H44.6242L44.5263 56.7631L44.4692 56.8202H44.51V56.9181L44.6324 56.8202H45.2035L45.073 56.967H45.3993V57.3179L45.6115 57.1057V57.7829L45.5462 57.8727H45.6115V57.9788L45.7339 57.8482L46.2642 57.7666V58.044L46.4682 57.7911L46.3213 58.044L46.6721 57.9543V58.1583L46.5906 58.297H46.6885L46.7782 58.8355L47.1209 58.3051L47.1862 58.6152L47.537 58.4765L47.6349 58.8599L47.8144 58.5173L47.9123 58.8192V58.9334H47.9776L48.0184 59.0802L48.0592 58.8436L48.3611 58.6968L48.5161 59.0966L48.3856 59.5861L48.9975 59.2271L49.1688 59.1129L49.332 59.4474L49.4136 59.17C49.6114 59.4196 49.776 59.6939 49.9032 59.9859L50.7191 56.2817L50.5069 56.0124ZM48.9404 52.7488C48.5569 53.0833 48.1245 53.3933 47.7981 53.7523H47.6349L48.9404 52.7488Z" fill="url(#paint63_linear_11_435)"/>
<path d="M45.9297 51.1251L46.1418 51.0272C46.1418 50.9211 46.1418 50.8069 46.0766 50.7008C46.2054 50.6892 46.3334 50.6701 46.46 50.6437C46.4192 50.5295 46.3866 50.4071 46.3376 50.2929C46.5315 50.2416 46.7122 50.1498 46.868 50.0236V49.8605C47.1862 49.9747 47.5126 49.9828 47.8389 50.1052L47.6268 50.2521C47.9287 50.0726 48.1898 49.836 48.4427 50.195L48.1816 50.4316C48.3305 50.2882 48.5195 50.1935 48.7235 50.16C48.9275 50.1265 49.1369 50.1558 49.3239 50.2439L49.6502 50.1215C49.6502 50.1215 49.8461 50.4071 49.9358 50.5132C49.8073 50.5615 49.6905 50.6367 49.5934 50.7338C49.4963 50.8309 49.4211 50.9476 49.3728 51.0762C49.2015 51.1578 48.8833 51.2557 48.7119 51.0762C48.593 51.131 48.4635 51.1595 48.3325 51.1595C48.2015 51.1595 48.0721 51.131 47.9531 51.0762L48.1 50.9048C47.9646 51.0312 47.7986 51.1202 47.6184 51.1632C47.4381 51.2061 47.2498 51.2014 47.072 51.1496C47.1303 51.1053 47.1849 51.0561 47.2351 51.0027C47.1144 51.1049 46.9737 51.1809 46.822 51.2258C46.6703 51.2708 46.5109 51.2837 46.354 51.2638C46.4593 51.1628 46.55 51.0474 46.6232 50.9211C46.4864 51.1196 46.301 51.2797 46.0847 51.3862L46.0194 51.2393V51.1822L45.9297 51.1251Z" fill="url(#paint64_linear_11_435)"/>
<path d="M50.3927 52.6183C51.1189 52.6183 51.1515 51.8024 50.7027 51.4026C51.3147 51.4026 51.6655 52.3245 52.204 51.8105C52.2972 51.7108 52.3638 51.5894 52.3979 51.4573C52.432 51.3252 52.4324 51.1867 52.3992 51.0544C52.3659 50.9221 52.3 50.8002 52.2074 50.7C52.1149 50.5998 51.9987 50.5243 51.8695 50.4806C51.9185 50.3582 52.3264 50.4806 52.4243 50.4806C52.5808 50.4828 52.7333 50.4314 52.8565 50.3349C52.9797 50.2384 53.0661 50.1027 53.1015 49.9502C53.3055 49.0201 52.3754 48.8406 51.7308 49.1343L51.6818 49.0772C51.6818 49.0201 51.6818 48.9385 51.6818 48.9385C51.9348 48.4979 53.1423 48.6611 53.2158 49.1751H53.1668C53.2647 49.1751 53.7216 49.4525 53.5095 49.526C53.6482 49.526 53.9827 49.9666 53.8522 49.9829C54.6681 50.3011 53.8522 51.4026 53.436 51.6147L52.9955 51.4515C53.6156 51.7942 53.689 52.145 53.0934 52.6264C52.4978 53.1078 52.2775 53.0425 51.9511 52.4796C52.767 54.3317 49.1036 53.4913 49.5034 51.9655C49.5857 52.1397 49.7101 52.2906 49.8654 52.4045C50.0206 52.5185 50.2019 52.592 50.3927 52.6183Z" fill="url(#paint65_linear_11_435)"/>
<path d="M51.0454 48.7263C50.926 48.7116 50.8048 48.7213 50.6892 48.7548C50.5737 48.7883 50.4661 48.8449 50.3731 48.9212C50.28 48.9975 50.2034 49.0918 50.1478 49.1986C50.0923 49.3053 50.059 49.4222 50.05 49.5422C50.05 50.2521 50.8088 49.9094 50.9393 50.3581C50.7634 50.3852 50.5959 50.4522 50.4498 50.554L50.5069 50.3581C50.3275 50.3901 50.1503 50.4337 49.9766 50.4887C49.836 50.0988 49.6409 49.7307 49.3973 49.3954C49.3483 49.2811 49.3483 49.1016 49.5033 49.0609C49.2341 48.8242 49.74 48.3102 49.9031 48.196C50.0663 48.0818 50.7762 47.8207 50.719 48.1062C51.1107 47.943 51.7063 48.4408 51.6818 48.8324C51.6818 48.8324 51.6818 48.9629 51.6818 49.0527C51.5165 48.87 51.2902 48.754 51.0454 48.7263Z" fill="url(#paint66_linear_11_435)"/>
<path d="M52.1877 51.2883C51.9837 52.1042 51.535 51.3699 51.0862 51.2149L51.331 51.0925C51.4452 50.9375 51.6166 50.8396 51.7308 50.6764C52.204 50.864 52.2285 51.1251 52.1877 51.2883Z" fill="url(#paint67_linear_11_435)"/>
<path d="M52.4488 49.1996C52.7588 49.1996 52.9383 49.7544 52.8078 50.0155C52.6772 50.2766 52.2448 50.1868 51.9919 50.2031C52.0375 49.9281 52.0064 49.6458 51.9021 49.3872C52.0694 49.2874 52.2555 49.2235 52.4488 49.1996Z" fill="url(#paint68_linear_11_435)"/>
<path d="M50.1398 50.7335C50.0255 51.1904 51.2984 52.3653 50.3601 52.3653C49.5442 52.3572 49.3075 50.9456 50.1398 50.7335Z" fill="url(#paint69_linear_11_435)"/>
<path d="M51.7063 49.942C51.7182 50.114 51.6844 50.286 51.6085 50.4407C51.5326 50.5955 51.4171 50.7274 51.2739 50.8232C51.2739 50.5458 51.2739 50.1868 50.9965 50.0073C50.7191 49.8278 50.4416 50.0073 50.3356 49.7054C50.0663 48.8732 51.7226 48.7834 51.7063 49.942Z" fill="url(#paint70_linear_11_435)"/>
<path d="M32.1979 53.9074C32.0184 53.9074 31.8878 53.4179 31.847 53.2873C30.3049 55.2781 28.7547 57.8401 29.1708 60.4592C30.6395 60.3205 30.5742 58.8763 30.8026 57.7504C31.1151 56.419 31.5834 55.1291 32.1979 53.9074Z" fill="url(#paint71_linear_11_435)"/>
<path d="M30.7619 54.2418C31.1943 53.6218 31.5778 53.1567 31.7573 52.9445C31.5696 53.0343 30.9414 53.328 30.7211 53.1567C29.8686 53.9358 29.1371 54.8378 28.5508 55.8329C27.894 56.7667 27.5279 57.8737 27.4982 59.0149C28.5508 58.7049 28.869 58.0277 29.2688 57.0894C29.6664 56.091 30.1668 55.1367 30.7619 54.2418Z" fill="url(#paint72_linear_11_435)"/>
<path d="M28.1591 55.9635C28.7657 54.7647 29.6161 53.7058 30.6558 52.8548C30.5447 52.5802 30.4892 52.2862 30.4926 51.99C30.3703 51.99 30.305 51.9002 30.2397 51.8268C28.3774 52.9652 26.9938 54.7434 26.3478 56.8283C26.9679 56.7223 27.8246 56.5591 28.1591 55.9635Z" fill="url(#paint73_linear_11_435)"/>
<path d="M39.9001 54.3398C39.1267 53.3568 38.2362 52.4717 37.2483 51.7044C37.1749 51.786 37.0444 51.7044 36.9628 51.7044C36.9628 51.9982 36.9057 52.912 36.6119 53.067C36.3182 53.222 35.8776 52.6672 35.6328 52.4959C35.6328 52.7896 35.5023 53.6626 35.2004 53.8666C35.7857 55.0786 36.1872 56.3711 36.3916 57.7014C36.4343 58.3287 36.516 58.9527 36.6364 59.5698C36.7515 59.8282 36.9179 60.0605 37.1255 60.2526C37.333 60.4448 37.5775 60.5928 37.844 60.6876C38.2682 59.3903 37.7542 57.8238 37.3381 56.6081C37.1539 56.049 36.9304 55.5037 36.669 54.9762C36.6038 54.8457 35.8531 53.7932 36.0653 53.7279C36.5793 53.581 37.4523 55.9553 37.5829 56.298C37.724 56.8942 37.9406 57.47 38.2274 58.0114C38.5853 58.464 39.0549 58.8155 39.59 59.0313C39.5809 57.8429 39.2662 56.6769 38.6762 55.6453C38.3734 55.1484 38.0353 54.674 37.6645 54.2256C37.5176 54.0379 36.8485 53.4913 36.8485 53.2465C36.8893 52.8222 37.5094 53.6137 37.5665 53.6789C37.9394 54.1022 38.2881 54.5462 38.6109 55.0089C39.2555 55.9717 39.5492 56.8447 40.8955 56.8936C40.8991 55.947 40.5433 55.0343 39.9001 54.3398Z" fill="url(#paint74_linear_11_435)"/>
<path d="M33.2749 53.9074C33.1767 53.7846 33.0893 53.6536 33.0138 53.5158C32.8912 53.6321 32.7471 53.7236 32.5895 53.785C32.049 54.9825 31.5963 56.2178 31.2351 57.4811C30.9251 58.7457 30.5742 60.3368 31.1454 61.5606C31.4134 61.5191 31.6682 61.4166 31.8903 61.261C32.1124 61.1054 32.2958 60.9008 32.4264 60.6631C32.4182 58.3867 32.3529 56.0695 33.2749 53.9074Z" fill="url(#paint75_linear_11_435)"/>
<path d="M34.8496 53.8095C34.7027 53.7238 34.5635 53.6255 34.4335 53.5158C34.2622 53.94 33.9276 54.5601 33.4952 54.144C33.0342 55.538 32.7813 56.9924 32.7446 58.4602C32.6956 59.6514 32.5324 61.2587 33.6421 62.0502C34.458 61.0385 34.458 59.4311 34.4988 58.1991C34.5306 57.3806 34.4842 56.561 34.3601 55.7513C34.3601 55.531 33.9766 54.5112 34.2458 54.4296C34.7109 54.2909 34.923 58.0196 34.9067 58.3949C34.9067 59.0313 34.7435 59.6596 34.7191 60.296C34.6946 60.9324 35.2331 61.3567 35.8124 61.6749C36.4733 60.5897 36.2775 59.0966 36.098 57.9135C35.9249 56.4831 35.5024 55.094 34.8496 53.8095Z" fill="url(#paint76_linear_11_435)"/>
<path d="M33.3728 50.9374C33.4465 51.0284 33.5146 51.1238 33.5768 51.223C33.6092 51.1694 33.6446 51.1177 33.6828 51.068C33.6525 51.01 33.6358 50.9458 33.6339 50.8803L33.3728 50.9374Z" fill="url(#paint77_linear_11_435)"/>
<path d="M38.1703 30.45C38.1295 30.3684 37.6563 29.5606 37.8277 29.6912C37.8277 29.4382 37.5013 27.5127 37.5339 27.4964C37.5646 27.5002 37.5934 27.5132 37.6167 27.5335C37.6399 27.5539 37.6566 27.5807 37.6645 27.6106C37.692 26.8879 37.6537 26.1642 37.5502 25.4484C37.5234 25.1126 37.3986 24.792 37.1912 24.5264C37.1912 24.5264 36.8241 24.2654 36.8649 24.2001C36.9057 24.1348 37.1423 24.1185 37.1097 24.143C36.8404 24.0206 36.6609 23.7758 36.3835 23.6453C36.0232 23.5106 35.6478 23.4202 35.2657 23.376C34.6619 23.2863 34.0989 23.0986 33.4952 22.9844C33.2236 22.9082 32.9398 22.8863 32.6598 22.9199C32.3798 22.9535 32.1091 23.0419 31.8633 23.1802C31.5941 23.3352 31.7818 23.3597 31.5043 23.4087C31.2269 23.4576 30.925 23.2618 30.5579 23.531C30.7954 23.7843 31.011 24.0572 31.2025 24.3469C31.4472 24.6652 31.4472 25.0323 31.8226 25.2526C32.4182 25.6116 33.2259 25.5627 33.7399 26.0685C34.254 26.5744 34.1887 27.5127 33.3728 27.3577C32.9975 27.2761 32.8751 26.9579 32.7119 26.6478C32.4671 26.2072 32.2713 26.1501 31.7736 26.0685C31.7736 26.1664 31.7736 26.2725 31.7736 26.3867C32.2305 26.4357 32.459 27.2026 32.3284 27.5616C32.1979 27.9206 31.5125 28.2796 31.3412 28.7773C31.3625 28.7445 31.394 28.7196 31.4308 28.7064C31.4676 28.6931 31.5078 28.6922 31.5451 28.7039C31.5941 28.7039 30.8108 29.324 30.7292 29.3974C30.3591 29.6772 30.0762 30.0564 29.9133 30.4908C30.2886 30.2705 30.6803 30.0583 31.0474 29.8299C30.8261 30.0262 30.5886 30.2036 30.3376 30.3602C29.9077 30.57 29.5602 30.9175 29.3503 31.3475H38.3254C38.2543 31.052 38.2025 30.7522 38.1703 30.45ZM35.0454 24.6407C35.0454 24.7467 33.9766 24.5101 33.9684 24.5101C34.1397 25.2526 32.8261 25.375 32.7608 24.4367C32.5242 24.4367 32.6221 24.8447 32.5895 24.8365C32.4959 24.785 32.4209 24.7051 32.3755 24.6084C32.3301 24.5116 32.3164 24.403 32.3366 24.298C32.4834 23.9716 33.2422 24.1593 33.5115 24.2082C33.5686 24.249 35.078 24.502 35.0454 24.6407Z" fill="url(#paint78_linear_11_435)"/>
<path d="M60.2979 14.7518C58.2336 14.1317 55.949 14.9068 54.0806 15.8207C52.1897 16.7763 50.4247 17.963 48.8261 19.3536C47.5289 20.4632 40.0959 27.4148 44.0123 28.7202C44.0926 29.1336 44.2475 29.5289 44.4692 29.887C44.4138 30.6011 44.4998 31.3192 44.7221 32.0002C44.6081 32.0881 44.5193 32.2045 44.4649 32.3378C44.4104 32.4711 44.3922 32.6164 44.4121 32.759C43.792 33.3791 43.074 34.6274 42.1846 34.8722V43.4637C42.3094 43.1518 42.3784 42.8204 42.3886 42.4846C42.8654 43.0639 43.5004 43.4919 44.2163 43.7167C44.1116 43.0226 44.0598 42.3216 44.0612 41.6198C44.5199 42.2434 45.1573 42.7129 45.8889 42.966C45.8973 42.3885 45.8728 41.811 45.8154 41.2363C46.3813 41.6431 47.0022 41.9673 47.6594 42.1991C47.5248 41.5326 47.451 40.8554 47.4391 40.1756C48.0392 40.596 48.7198 40.8877 49.4381 41.0323C49.2341 40.2956 48.9609 39.5799 48.6222 38.8946C49.3811 39.1297 50.1695 39.256 50.9638 39.2699C50.5477 38.6906 50.1479 38.1195 49.6829 37.5565C50.4417 37.5565 51.2086 37.7523 51.9756 37.7523C51.4942 37.2057 51.021 36.6427 50.5722 36.0634C51.4209 36.077 52.2679 35.9838 53.0934 35.786C52.4733 35.3454 51.9021 34.8314 51.2331 34.4479C52.0751 34.4768 52.9125 34.3121 53.6808 33.9665C53.1131 33.5212 52.4973 33.1408 51.845 32.8324C52.344 32.9223 52.8564 32.9039 53.3477 32.7787C53.8389 32.6534 54.2976 32.4241 54.6925 32.1062C54.0561 31.8615 53.4768 31.4943 52.8649 31.1924H52.6201C53.5946 31.0621 54.5044 30.6315 55.2229 29.9604C54.8585 29.8992 54.506 29.7808 54.1785 29.6096C53.7655 29.4629 53.3347 29.3723 52.8975 29.3403C53.7021 29.0196 54.4798 28.6349 55.2229 28.1899C54.8223 28.1164 54.4291 28.0072 54.048 27.8635C53.5527 27.7943 53.0502 27.7943 52.5549 27.8635C53.6806 27.392 54.7351 26.7659 55.688 26.0032H52.2693C53.3182 25.4922 54.3131 24.8771 55.2392 24.1674C54.1744 24.0506 53.101 24.0315 52.0327 24.1103C53.9613 23.6016 55.6766 22.4894 56.9281 20.9364C56.1139 21.0006 55.2966 21.0169 54.4804 20.9854C55.8761 20.2819 57.1142 19.302 58.1194 18.1052C57.5858 18.0883 57.0567 18.0033 56.5447 17.8523L56.4223 17.8931C59.5635 16.4897 60.2979 14.7518 60.2979 14.7518Z" fill="url(#paint79_linear_11_435)"/>
<path d="M25.0097 34.9048C24.0714 34.9619 23.1005 33.3383 22.562 32.7671C22.5818 32.6246 22.5636 32.4792 22.5092 32.346C22.4547 32.2127 22.366 32.0962 22.2519 32.0083C22.4743 31.3274 22.5602 30.6093 22.5049 29.8951C22.7266 29.5371 22.8814 29.1418 22.9618 28.7284C26.8455 27.4148 19.3718 20.4387 18.0826 19.3536C16.4744 17.9479 14.692 16.755 12.7792 15.8044C10.9271 14.9068 8.69965 14.1725 6.64355 14.7681C6.64355 14.7681 7.37787 16.506 10.4702 17.9339L10.3478 17.8931C9.8358 18.0441 9.30662 18.1291 8.77308 18.146C9.78227 19.3281 11.0201 20.2939 12.412 20.9854C11.5959 21.017 10.7786 21.0006 9.96431 20.9364C11.2159 22.4894 12.9312 23.6016 14.8598 24.1103C13.7914 24.0315 12.7181 24.0506 11.6532 24.1674C12.5781 24.8789 13.5733 25.494 14.6232 26.0032H11.2045C12.1574 26.7659 13.2119 27.392 14.3376 27.8635C13.845 27.7942 13.3452 27.7942 12.8526 27.8635C12.4681 28.0051 12.0723 28.1143 11.6696 28.1899C12.4127 28.6349 13.1903 29.0196 13.9949 29.3403C13.5432 29.3739 13.0984 29.47 12.6731 29.6259C12.359 29.7912 12.0201 29.9042 11.6696 29.9604C12.393 30.5865 13.289 30.979 14.2397 31.0864H14.0031C13.3911 31.3883 12.8118 31.7554 12.1754 32.0002C12.5704 32.318 13.0291 32.5473 13.5203 32.6726C14.0116 32.7979 14.524 32.8162 15.023 32.7263C14.3697 33.0329 13.7537 33.4134 13.1872 33.8605C13.9555 34.206 14.7929 34.3707 15.6349 34.3418C14.9658 34.7253 14.3947 35.2393 13.7746 35.6799C14.6001 35.8777 15.4471 35.9709 16.2958 35.9574C15.8389 36.5366 15.3738 37.0996 14.8924 37.6463C15.6594 37.6463 16.4263 37.4505 17.1851 37.4505C16.7445 38.0134 16.3121 38.5846 15.9041 39.1639C16.6984 39.1493 17.4867 39.023 18.2458 38.7886C17.9036 39.4723 17.6303 40.1884 17.4299 40.9263C18.1687 40.8112 18.8749 40.5416 19.5023 40.1348C19.4943 40.8287 19.4178 41.5202 19.2739 42.1991C19.9364 41.9678 20.5627 41.6436 21.1341 41.2363C21.0767 41.811 21.0522 42.3885 21.0607 42.966C21.7923 42.7129 22.4297 42.2434 22.8883 41.6198C22.9006 42.3208 22.8597 43.0218 22.766 43.7167C23.4808 43.4898 24.1152 43.0622 24.5936 42.4846C24.6697 43.084 24.8233 43.6709 25.0505 44.2307L25.0097 34.9048Z" fill="url(#paint80_linear_11_435)"/>
<path d="M25.0097 48.3592V44.7692C24.7144 44.8999 24.4624 45.1122 24.2835 45.3811C23.7453 45.5851 23.3087 45.9924 23.0678 46.5152C22.8775 46.5779 22.7045 46.6844 22.5628 46.8261C22.4211 46.9678 22.3146 47.1408 22.2519 47.3311C21.911 47.54 21.6651 47.8737 21.5666 48.2613C20.9628 48.351 20.8241 48.9058 20.6201 49.3709C20.4959 49.5314 20.4195 49.7237 20.3998 49.9257C20.4651 49.9257 21.1097 50.2031 21.2157 50.04C21.1423 50.1868 20.9628 50.2603 20.8894 50.4642C21.1149 50.4767 21.341 50.4767 21.5666 50.4642C21.4651 50.4825 21.3716 50.5314 21.2987 50.6044C21.2258 50.6773 21.1769 50.7707 21.1586 50.8722L21.5992 51.0762L21.3055 51.2801C21.3814 51.3898 21.469 51.4911 21.5666 51.582C21.6253 51.5984 21.6873 51.5984 21.7461 51.582C22.0836 51.7133 22.4442 51.7745 22.8061 51.7618C23.168 51.7492 23.5236 51.6631 23.8511 51.5086L23.6961 51.6391C24.0048 51.6886 24.3204 51.6727 24.6225 51.5926C24.9247 51.5125 25.2067 51.3699 25.4503 51.1741C25.9405 51.1406 26.4171 50.9984 26.8455 50.758C26.304 50.6422 25.8216 50.337 25.4851 49.8972C25.1485 49.4575 24.98 48.9121 25.0097 48.3592Z" fill="url(#paint81_linear_11_435)"/>
<path d="M42.1846 48.3592C42.2259 48.9541 42.0346 49.5418 41.6511 49.9984C41.2675 50.455 40.7216 50.7449 40.1285 50.8069C40.5778 50.9914 41.0498 51.1149 41.5319 51.1741C41.78 51.3795 42.0696 51.5288 42.3809 51.6119C42.6921 51.695 43.0176 51.7099 43.3351 51.6555L43.1637 51.5086C43.4918 51.6612 43.8472 51.7464 44.2088 51.759C44.5704 51.7716 44.9309 51.7114 45.2688 51.582C45.3275 51.5984 45.3896 51.5984 45.4483 51.582C45.5502 51.493 45.6406 51.3916 45.7175 51.2801L45.4238 51.0762L45.8644 50.8722C45.8434 50.7705 45.7927 50.6774 45.7185 50.6048C45.6444 50.5321 45.5503 50.4832 45.4483 50.4642C45.6738 50.4767 45.8999 50.4767 46.1255 50.4642C46.0521 50.2603 45.8726 50.1868 45.7991 50.04C45.8807 50.2113 46.5416 49.9502 46.615 49.9257C46.6001 49.7226 46.5232 49.529 46.3947 49.3709C46.1989 48.914 46.0439 48.351 45.4483 48.2613C45.3506 47.8734 45.1045 47.5394 44.7629 47.3311C44.7002 47.1408 44.5937 46.9678 44.452 46.8261C44.3103 46.6844 44.1373 46.5779 43.947 46.5152C43.7062 45.9924 43.2696 45.5851 42.7313 45.3811C42.6029 45.1915 42.4395 45.0282 42.2499 44.8997L42.1846 48.3592Z" fill="url(#paint82_linear_11_435)"/>
<path d="M36.3182 51.4107C36.2586 51.6431 36.1406 51.8566 35.9755 52.0308C35.6892 51.6356 35.339 51.2909 34.9393 51.0109C34.9309 51.0965 34.9145 51.1812 34.8904 51.2638C35.1551 51.472 35.3489 51.757 35.4452 52.0797C35.7789 52.2926 36.1003 52.5242 36.408 52.7732C36.5591 52.407 36.6098 52.007 36.5548 51.6147C36.472 51.5515 36.3929 51.4833 36.3182 51.4107Z" fill="url(#paint83_linear_11_435)"/>
<path d="M32.6629 51.5658C32.394 51.8155 32.2171 52.1487 32.1608 52.5114C32.1045 52.8741 32.1722 53.2452 32.3529 53.5647C32.4769 53.5254 32.592 53.4618 32.6914 53.3778C32.7908 53.2938 32.8727 53.1909 32.9322 53.0752C32.8991 52.7465 32.9409 52.4145 33.0546 52.1043C32.8854 51.9563 32.7515 51.7723 32.6629 51.5658Z" fill="url(#paint84_linear_11_435)"/>
<path d="M31.4228 51.9899C31.2778 51.8121 31.1545 51.6176 31.0556 51.4107C30.9996 51.5089 30.9311 51.5994 30.8516 51.6799C30.7742 52.0716 30.814 52.4774 30.9658 52.8467C31.2937 52.8021 31.6052 52.6758 31.8715 52.4795C31.9545 52.0171 32.197 51.5984 32.5569 51.2964V51.174C32.2336 51.515 31.8488 51.7919 31.4228 51.9899Z" fill="url(#paint85_linear_11_435)"/>
<path d="M33.2912 52.2592C33.2013 52.5593 33.1997 52.8788 33.2865 53.1797C33.3733 53.4807 33.5449 53.7503 33.7807 53.9563C33.9924 53.6933 34.1396 53.3844 34.2105 53.0542C34.2813 52.7241 34.2738 52.382 34.1887 52.0553L34.1071 51.9981L33.642 52.7733L33.2912 52.2592Z" fill="url(#paint86_linear_11_435)"/>
<path d="M33.2912 52.2592L33.6094 52.7733L34.0745 51.9981C33.987 51.9441 33.9073 51.8782 33.8379 51.8023C33.7816 51.9109 33.7043 52.0073 33.6104 52.0857C33.5166 52.1642 33.4081 52.2231 33.2912 52.2592Z" fill="url(#paint87_linear_11_435)"/>
<path d="M34.7925 51.5412C34.7107 51.7312 34.5814 51.8969 34.4172 52.0226C34.4824 52.3759 34.4824 52.7382 34.4172 53.0915C34.5823 53.2719 34.7718 53.4284 34.9802 53.5565C35.1721 53.2458 35.2575 52.8811 35.2237 52.5175C35.1898 52.1538 35.0385 51.8111 34.7925 51.5412Z" fill="url(#paint88_linear_11_435)"/>
<path d="M30.0031 50.8232C30.0991 51.1214 30.2514 51.3984 30.4518 51.6391C30.684 51.5015 30.8581 51.2839 30.9414 51.0272C30.9239 50.9546 30.9102 50.881 30.9006 50.8069L30.0031 50.8232Z" fill="url(#paint89_linear_11_435)"/>
<path d="M31.9776 50.8232C31.7069 50.7858 31.4324 50.7858 31.1617 50.8232C31.1991 51.1172 31.3084 51.3974 31.4799 51.6391C31.7948 51.4534 32.0716 51.2098 32.2958 50.9211C32.1969 50.8687 32.0889 50.8355 31.9776 50.8232Z" fill="url(#paint90_linear_11_435)"/>
<path d="M36.4406 50.8151C36.4463 50.9102 36.4463 51.0055 36.4406 51.1006C36.613 51.2891 36.8373 51.4225 37.0852 51.4841C37.2032 51.2799 37.2834 51.056 37.3218 50.8232L36.4406 50.8151Z" fill="url(#paint91_linear_11_435)"/>
<path d="M34.1887 51.7697H34.2377C34.4318 51.61 34.5644 51.388 34.613 51.1414C34.4483 51.3342 34.306 51.5449 34.1887 51.7697Z" fill="url(#paint92_linear_11_435)"/>
<path d="M35.4942 50.7824C35.3779 50.7919 35.2631 50.8138 35.1515 50.8477C35.4433 51.0544 35.7164 51.2865 35.9674 51.5412C36.0758 51.3101 36.1422 51.0614 36.1632 50.8069C35.9511 50.7988 35.7226 50.7824 35.4942 50.7824Z" fill="url(#paint93_linear_11_435)"/>
</g>
<defs>
<filter id="filter0_d_11_435" x="0" y="0" width="67.6839" height="70.0502" filterUnits="userSpaceOnUse" color-interpolation-filters="sRGB">
<feFlood flood-opacity="0" result="BackgroundImageFix"/>
<feColorMatrix in="SourceAlpha" type="matrix" values="0 0 0 0 0 0 0 0 0 0 0 0 0 0 0 0 0 0 127 0" result="hardAlpha"/>
<feOffset dy="4"/>
<feGaussianBlur stdDeviation="2"/>
<feComposite in2="hardAlpha" operator="out"/>
<feColorMatrix type="matrix" values="0 0 0 0 0 0 0 0 0 0 0 0 0 0 0 0 0 0 0.25 0"/>
<feBlend mode="normal" in2="BackgroundImageFix" result="effect1_dropShadow_11_435"/>
<feBlend mode="normal" in="SourceGraphic" in2="effect1_dropShadow_11_435" result="shape"/>
</filter>
<linearGradient id="paint0_linear_11_435" x1="25.2868" y1="33.0227" x2="28.4277" y2="41.758" gradientUnits="userSpaceOnUse">
<stop stop-color="white"/>
<stop offset="0.5" stop-color="#696969" stop-opacity="0.53125"/>
<stop offset="1" stop-color="white"/>
</linearGradient>
<linearGradient id="paint1_linear_11_435" x1="32.8177" y1="40.4598" x2="35.3666" y2="40.7599" gradientUnits="userSpaceOnUse">
<stop stop-color="white"/>
<stop offset="0.5" stop-color="#696969" stop-opacity="0.53125"/>
<stop offset="1" stop-color="white"/>
</linearGradient>
<linearGradient id="paint2_linear_11_435" x1="35.2165" y1="40.27" x2="37.7575" y2="40.6014" gradientUnits="userSpaceOnUse">
<stop stop-color="white"/>
<stop offset="0.5" stop-color="#696969" stop-opacity="0.53125"/>
<stop offset="1" stop-color="white"/>
</linearGradient>
<linearGradient id="paint3_linear_11_435" x1="37.6068" y1="40.2737" x2="40.1616" y2="40.6081" gradientUnits="userSpaceOnUse">
<stop stop-color="white"/>
<stop offset="0.5" stop-color="#696969" stop-opacity="0.53125"/>
<stop offset="1" stop-color="white"/>
</linearGradient>
<linearGradient id="paint4_linear_11_435" x1="25.7422" y1="40.27" x2="28.0869" y2="40.5514" gradientUnits="userSpaceOnUse">
<stop stop-color="white"/>
<stop offset="0.5" stop-color="#696969" stop-opacity="0.53125"/>
<stop offset="1" stop-color="white"/>
</linearGradient>
<linearGradient id="paint5_linear_11_435" x1="40.0103" y1="40.27" x2="42.332" y2="40.5459" gradientUnits="userSpaceOnUse">
<stop stop-color="white"/>
<stop offset="0.5" stop-color="#696969" stop-opacity="0.53125"/>
<stop offset="1" stop-color="white"/>
</linearGradient>
<linearGradient id="paint6_linear_11_435" x1="28.0202" y1="40.2737" x2="30.5613" y2="40.6044" gradientUnits="userSpaceOnUse">
<stop stop-color="white"/>
<stop offset="0.5" stop-color="#696969" stop-opacity="0.53125"/>
<stop offset="1" stop-color="white"/>
</linearGradient>
<linearGradient id="paint7_linear_11_435" x1="30.4189" y1="40.2737" x2="32.9601" y2="40.6044" gradientUnits="userSpaceOnUse">
<stop stop-color="white"/>
<stop offset="0.5" stop-color="#696969" stop-opacity="0.53125"/>
<stop offset="1" stop-color="white"/>
</linearGradient>
<linearGradient id="paint8_linear_11_435" x1="24.799" y1="25.1948" x2="27.3673" y2="27.246" gradientUnits="userSpaceOnUse">
<stop stop-color="white"/>
<stop offset="0.5" stop-color="#696969" stop-opacity="0.53125"/>
<stop offset="1" stop-color="white"/>
</linearGradient>
<linearGradient id="paint9_linear_11_435" x1="38.7774" y1="25.7905" x2="43.3486" y2="28.1873" gradientUnits="userSpaceOnUse">
<stop stop-color="white"/>
<stop offset="0.5" stop-color="#696969" stop-opacity="0.53125"/>
<stop offset="1" stop-color="white"/>
</linearGradient>
<linearGradient id="paint10_linear_11_435" x1="16.007" y1="9.40026" x2="16.8712" y2="10.4451" gradientUnits="userSpaceOnUse">
<stop stop-color="white"/>
<stop offset="0.5" stop-color="#696969" stop-opacity="0.53125"/>
<stop offset="1" stop-color="white"/>
</linearGradient>
<linearGradient id="paint11_linear_11_435" x1="16.2987" y1="10.248" x2="16.9752" y2="10.8044" gradientUnits="userSpaceOnUse">
<stop stop-color="white"/>
<stop offset="0.5" stop-color="#696969" stop-opacity="0.53125"/>
<stop offset="1" stop-color="white"/>
</linearGradient>
<linearGradient id="paint12_linear_11_435" x1="16.7405" y1="14.3311" x2="17.3613" y2="15.9656" gradientUnits="userSpaceOnUse">
<stop stop-color="white"/>
<stop offset="0.5" stop-color="#696969" stop-opacity="0.53125"/>
<stop offset="1" stop-color="white"/>
</linearGradient>
<linearGradient id="paint13_linear_11_435" x1="14.6101" y1="10.8227" x2="18.4135" y2="15.1462" gradientUnits="userSpaceOnUse">
<stop stop-color="white"/>
<stop offset="0.5" stop-color="#696969" stop-opacity="0.53125"/>
<stop offset="1" stop-color="white"/>
</linearGradient>
<linearGradient id="paint14_linear_11_435" x1="24.754" y1="23.881" x2="25.5916" y2="25.1921" gradientUnits="userSpaceOnUse">
<stop stop-color="white"/>
<stop offset="0.5" stop-color="#696969" stop-opacity="0.53125"/>
<stop offset="1" stop-color="white"/>
</linearGradient>
<linearGradient id="paint15_linear_11_435" x1="16.0578" y1="16.046" x2="24.545" y2="26.4779" gradientUnits="userSpaceOnUse">
<stop stop-color="white"/>
<stop offset="0.5" stop-color="#696969" stop-opacity="0.53125"/>
<stop offset="1" stop-color="white"/>
</linearGradient>
<linearGradient id="paint16_linear_11_435" x1="49.642" y1="9.39048" x2="50.5182" y2="10.4349" gradientUnits="userSpaceOnUse">
<stop stop-color="white"/>
<stop offset="0.5" stop-color="#696969" stop-opacity="0.53125"/>
<stop offset="1" stop-color="white"/>
</linearGradient>
<linearGradient id="paint17_linear_11_435" x1="49.955" y1="10.248" x2="50.6315" y2="10.8044" gradientUnits="userSpaceOnUse">
<stop stop-color="white"/>
<stop offset="0.5" stop-color="#696969" stop-opacity="0.53125"/>
<stop offset="1" stop-color="white"/>
</linearGradient>
<linearGradient id="paint18_linear_11_435" x1="47.0028" y1="10.8389" x2="50.905" y2="15.1983" gradientUnits="userSpaceOnUse">
<stop stop-color="white"/>
<stop offset="0.5" stop-color="#696969" stop-opacity="0.53125"/>
<stop offset="1" stop-color="white"/>
</linearGradient>
<linearGradient id="paint19_linear_11_435" x1="47.26" y1="14.3822" x2="47.7761" y2="15.8507" gradientUnits="userSpaceOnUse">
<stop stop-color="white"/>
<stop offset="0.5" stop-color="#696969" stop-opacity="0.53125"/>
<stop offset="1" stop-color="white"/>
</linearGradient>
<linearGradient id="paint20_linear_11_435" x1="40.2659" y1="23.9529" x2="41.3423" y2="25.3208" gradientUnits="userSpaceOnUse">
<stop stop-color="white"/>
<stop offset="0.5" stop-color="#696969" stop-opacity="0.53125"/>
<stop offset="1" stop-color="white"/>
</linearGradient>
<linearGradient id="paint21_linear_11_435" x1="37.7963" y1="16.0718" x2="46.2882" y2="26.5226" gradientUnits="userSpaceOnUse">
<stop stop-color="white"/>
<stop offset="0.5" stop-color="#696969" stop-opacity="0.53125"/>
<stop offset="1" stop-color="white"/>
</linearGradient>
<linearGradient id="paint22_linear_11_435" x1="29.4847" y1="26.4979" x2="32.2411" y2="27.8563" gradientUnits="userSpaceOnUse">
<stop stop-color="white"/>
<stop offset="0.5" stop-color="#696969" stop-opacity="0.53125"/>
<stop offset="1" stop-color="white"/>
</linearGradient>
<linearGradient id="paint23_linear_11_435" x1="37.9286" y1="28.756" x2="39.7559" y2="29.7896" gradientUnits="userSpaceOnUse">
<stop stop-color="white"/>
<stop offset="0.5" stop-color="#696969" stop-opacity="0.53125"/>
<stop offset="1" stop-color="white"/>
</linearGradient>
<linearGradient id="paint24_linear_11_435" x1="27.2551" y1="25.7086" x2="28.6931" y2="26.229" gradientUnits="userSpaceOnUse">
<stop stop-color="white"/>
<stop offset="0.5" stop-color="#696969" stop-opacity="0.53125"/>
<stop offset="1" stop-color="white"/>
</linearGradient>
<linearGradient id="paint25_linear_11_435" x1="21.8339" y1="3.31658" x2="40.5148" y2="22.0465" gradientUnits="userSpaceOnUse">
<stop stop-color="white"/>
<stop offset="0.5" stop-color="#696969" stop-opacity="0.53125"/>
<stop offset="1" stop-color="white"/>
</linearGradient>
<linearGradient id="paint26_linear_11_435" x1="27.0855" y1="6.66191" x2="37.3499" y2="16.8487" gradientUnits="userSpaceOnUse">
<stop stop-color="white"/>
<stop offset="0.5" stop-color="#696969" stop-opacity="0.53125"/>
<stop offset="1" stop-color="white"/>
</linearGradient>
<linearGradient id="paint27_linear_11_435" x1="28.9427" y1="25.6148" x2="29.5259" y2="26.6867" gradientUnits="userSpaceOnUse">
<stop stop-color="white"/>
<stop offset="0.5" stop-color="#696969" stop-opacity="0.53125"/>
<stop offset="1" stop-color="white"/>
</linearGradient>
<linearGradient id="paint28_linear_11_435" x1="28.128" y1="24.2188" x2="30.6875" y2="28.5269" gradientUnits="userSpaceOnUse">
<stop stop-color="white"/>
<stop offset="0.5" stop-color="#696969" stop-opacity="0.53125"/>
<stop offset="1" stop-color="white"/>
</linearGradient>
<linearGradient id="paint29_linear_11_435" x1="3.87286" y1="38.1187" x2="7.03469" y2="41.4519" gradientUnits="userSpaceOnUse">
<stop stop-color="white"/>
<stop offset="0.5" stop-color="#696969" stop-opacity="0.53125"/>
<stop offset="1" stop-color="white"/>
</linearGradient>
<linearGradient id="paint30_linear_11_435" x1="8.17623" y1="39.0972" x2="9.45723" y2="40.4041" gradientUnits="userSpaceOnUse">
<stop stop-color="white"/>
<stop offset="0.5" stop-color="#696969" stop-opacity="0.53125"/>
<stop offset="1" stop-color="white"/>
</linearGradient>
<linearGradient id="paint31_linear_11_435" x1="9.14107" y1="41.8576" x2="10.4367" y2="43.164" gradientUnits="userSpaceOnUse">
<stop stop-color="white"/>
<stop offset="0.5" stop-color="#696969" stop-opacity="0.53125"/>
<stop offset="1" stop-color="white"/>
</linearGradient>
<linearGradient id="paint32_linear_11_435" x1="10.6997" y1="48.1252" x2="12.2107" y2="49.5589" gradientUnits="userSpaceOnUse">
<stop stop-color="white"/>
<stop offset="0.5" stop-color="#696969" stop-opacity="0.53125"/>
<stop offset="1" stop-color="white"/>
</linearGradient>
<linearGradient id="paint33_linear_11_435" x1="6.96505" y1="46.32" x2="8.00957" y2="47.5088" gradientUnits="userSpaceOnUse">
<stop stop-color="white"/>
<stop offset="0.5" stop-color="#696969" stop-opacity="0.53125"/>
<stop offset="1" stop-color="white"/>
</linearGradient>
<linearGradient id="paint34_linear_11_435" x1="6.82741" y1="41.8232" x2="7.5173" y2="42.8902" gradientUnits="userSpaceOnUse">
<stop stop-color="white"/>
<stop offset="0.5" stop-color="#696969" stop-opacity="0.53125"/>
<stop offset="1" stop-color="white"/>
</linearGradient>
<linearGradient id="paint35_linear_11_435" x1="12.01" y1="45.8752" x2="13.1497" y2="46.7613" gradientUnits="userSpaceOnUse">
<stop stop-color="white"/>
<stop offset="0.5" stop-color="#696969" stop-opacity="0.53125"/>
<stop offset="1" stop-color="white"/>
</linearGradient>
<linearGradient id="paint36_linear_11_435" x1="9.05147" y1="45.9717" x2="9.71552" y2="46.9976" gradientUnits="userSpaceOnUse">
<stop stop-color="white"/>
<stop offset="0.5" stop-color="#696969" stop-opacity="0.53125"/>
<stop offset="1" stop-color="white"/>
</linearGradient>
<linearGradient id="paint37_linear_11_435" x1="10.0234" y1="44.0269" x2="11.2766" y2="45.019" gradientUnits="userSpaceOnUse">
<stop stop-color="white"/>
<stop offset="0.5" stop-color="#696969" stop-opacity="0.53125"/>
<stop offset="1" stop-color="white"/>
</linearGradient>
<linearGradient id="paint38_linear_11_435" x1="13.1163" y1="47.3347" x2="14.1011" y2="48.3395" gradientUnits="userSpaceOnUse">
<stop stop-color="white"/>
<stop offset="0.5" stop-color="#696969" stop-opacity="0.53125"/>
<stop offset="1" stop-color="white"/>
</linearGradient>
<linearGradient id="paint39_linear_11_435" x1="8.05266" y1="43.5714" x2="9.16413" y2="44.7053" gradientUnits="userSpaceOnUse">
<stop stop-color="white"/>
<stop offset="0.5" stop-color="#696969" stop-opacity="0.53125"/>
<stop offset="1" stop-color="white"/>
</linearGradient>
<linearGradient id="paint40_linear_11_435" x1="12.3258" y1="48.6023" x2="13.2919" y2="49.3393" gradientUnits="userSpaceOnUse">
<stop stop-color="white"/>
<stop offset="0.5" stop-color="#696969" stop-opacity="0.53125"/>
<stop offset="1" stop-color="white"/>
</linearGradient>
<linearGradient id="paint41_linear_11_435" x1="10.8268" y1="50.2128" x2="11.9383" y2="51.3468" gradientUnits="userSpaceOnUse">
<stop stop-color="white"/>
<stop offset="0.5" stop-color="#696969" stop-opacity="0.53125"/>
<stop offset="1" stop-color="white"/>
</linearGradient>
<linearGradient id="paint42_linear_11_435" x1="9.34089" y1="50.1497" x2="12.3888" y2="53.0156" gradientUnits="userSpaceOnUse">
<stop stop-color="white"/>
<stop offset="0.5" stop-color="#696969" stop-opacity="0.53125"/>
<stop offset="1" stop-color="white"/>
</linearGradient>
<linearGradient id="paint43_linear_11_435" x1="8.82197" y1="38.8228" x2="11.979" y2="41.2355" gradientUnits="userSpaceOnUse">
<stop stop-color="white"/>
<stop offset="0.5" stop-color="#696969" stop-opacity="0.53125"/>
<stop offset="1" stop-color="white"/>
</linearGradient>
<linearGradient id="paint44_linear_11_435" x1="14.3593" y1="43.9041" x2="18.0192" y2="46.646" gradientUnits="userSpaceOnUse">
<stop stop-color="white"/>
<stop offset="0.5" stop-color="#696969" stop-opacity="0.53125"/>
<stop offset="1" stop-color="white"/>
</linearGradient>
<linearGradient id="paint45_linear_11_435" x1="7.3514" y1="48.3228" x2="9.29449" y2="51.309" gradientUnits="userSpaceOnUse">
<stop stop-color="white"/>
<stop offset="0.5" stop-color="#696969" stop-opacity="0.53125"/>
<stop offset="1" stop-color="white"/>
</linearGradient>
<linearGradient id="paint46_linear_11_435" x1="13.0111" y1="42.7216" x2="16.2362" y2="44.0242" gradientUnits="userSpaceOnUse">
<stop stop-color="white"/>
<stop offset="0.5" stop-color="#696969" stop-opacity="0.53125"/>
<stop offset="1" stop-color="white"/>
</linearGradient>
<linearGradient id="paint47_linear_11_435" x1="4.92054" y1="42.6078" x2="6.04166" y2="44.9639" gradientUnits="userSpaceOnUse">
<stop stop-color="white"/>
<stop offset="0.5" stop-color="#696969" stop-opacity="0.53125"/>
<stop offset="1" stop-color="white"/>
</linearGradient>
<linearGradient id="paint48_linear_11_435" x1="8.48997" y1="34.6708" x2="10.9583" y2="35.6681" gradientUnits="userSpaceOnUse">
<stop stop-color="white"/>
<stop offset="0.5" stop-color="#696969" stop-opacity="0.53125"/>
<stop offset="1" stop-color="white"/>
</linearGradient>
<linearGradient id="paint49_linear_11_435" x1="6.07896" y1="34.2114" x2="9.70854" y2="35.8107" gradientUnits="userSpaceOnUse">
<stop stop-color="white"/>
<stop offset="0.5" stop-color="#696969" stop-opacity="0.53125"/>
<stop offset="1" stop-color="white"/>
</linearGradient>
<linearGradient id="paint50_linear_11_435" x1="16.8458" y1="50.0941" x2="17.7027" y2="52.4082" gradientUnits="userSpaceOnUse">
<stop stop-color="white"/>
<stop offset="0.5" stop-color="#696969" stop-opacity="0.53125"/>
<stop offset="1" stop-color="white"/>
</linearGradient>
<linearGradient id="paint51_linear_11_435" x1="12.5983" y1="49.4267" x2="16.7848" y2="53.5865" gradientUnits="userSpaceOnUse">
<stop stop-color="white"/>
<stop offset="0.5" stop-color="#696969" stop-opacity="0.53125"/>
<stop offset="1" stop-color="white"/>
</linearGradient>
<linearGradient id="paint52_linear_11_435" x1="15.1894" y1="48.3717" x2="17.4032" y2="50.4021" gradientUnits="userSpaceOnUse">
<stop stop-color="white"/>
<stop offset="0.5" stop-color="#696969" stop-opacity="0.53125"/>
<stop offset="1" stop-color="white"/>
</linearGradient>
<linearGradient id="paint53_linear_11_435" x1="14.7109" y1="50.828" x2="15.5568" y2="51.7996" gradientUnits="userSpaceOnUse">
<stop stop-color="white"/>
<stop offset="0.5" stop-color="#696969" stop-opacity="0.53125"/>
<stop offset="1" stop-color="white"/>
</linearGradient>
<linearGradient id="paint54_linear_11_435" x1="15.8744" y1="50.7218" x2="16.3541" y2="51.2821" gradientUnits="userSpaceOnUse">
<stop stop-color="white"/>
<stop offset="0.5" stop-color="#696969" stop-opacity="0.53125"/>
<stop offset="1" stop-color="white"/>
</linearGradient>
<linearGradient id="paint55_linear_11_435" x1="14.0655" y1="49.3536" x2="14.933" y2="50.2241" gradientUnits="userSpaceOnUse">
<stop stop-color="white"/>
<stop offset="0.5" stop-color="#696969" stop-opacity="0.53125"/>
<stop offset="1" stop-color="white"/>
</linearGradient>
<linearGradient id="paint56_linear_11_435" x1="16.209" y1="50.9833" x2="17.5164" y2="51.87" gradientUnits="userSpaceOnUse">
<stop stop-color="white"/>
<stop offset="0.5" stop-color="#696969" stop-opacity="0.53125"/>
<stop offset="1" stop-color="white"/>
</linearGradient>
<linearGradient id="paint57_linear_11_435" x1="15.1939" y1="49.3436" x2="16.671" y2="50.5535" gradientUnits="userSpaceOnUse">
<stop stop-color="white"/>
<stop offset="0.5" stop-color="#696969" stop-opacity="0.53125"/>
<stop offset="1" stop-color="white"/>
</linearGradient>
<linearGradient id="paint58_linear_11_435" x1="17.6459" y1="52.9328" x2="21.7555" y2="55.2067" gradientUnits="userSpaceOnUse">
<stop stop-color="white"/>
<stop offset="0.5" stop-color="#696969" stop-opacity="0.53125"/>
<stop offset="1" stop-color="white"/>
</linearGradient>
<linearGradient id="paint59_linear_11_435" x1="11.3466" y1="51.5286" x2="13.747" y2="52.6947" gradientUnits="userSpaceOnUse">
<stop stop-color="white"/>
<stop offset="0.5" stop-color="#696969" stop-opacity="0.53125"/>
<stop offset="1" stop-color="white"/>
</linearGradient>
<linearGradient id="paint60_linear_11_435" x1="14.147" y1="47.8441" x2="14.5628" y2="48.6206" gradientUnits="userSpaceOnUse">
<stop stop-color="white"/>
<stop offset="0.5" stop-color="#696969" stop-opacity="0.53125"/>
<stop offset="1" stop-color="white"/>
</linearGradient>
<linearGradient id="paint61_linear_11_435" x1="4.91309" y1="41.0236" x2="12.8127" y2="48.7528" gradientUnits="userSpaceOnUse">
<stop stop-color="white"/>
<stop offset="0.5" stop-color="#696969" stop-opacity="0.53125"/>
<stop offset="1" stop-color="white"/>
</linearGradient>
<linearGradient id="paint62_linear_11_435" x1="51.5579" y1="35.8427" x2="64.5925" y2="45.8025" gradientUnits="userSpaceOnUse">
<stop stop-color="white"/>
<stop offset="0.5" stop-color="#696969" stop-opacity="0.53125"/>
<stop offset="1" stop-color="white"/>
</linearGradient>
<linearGradient id="paint63_linear_11_435" x1="43.3322" y1="53.5804" x2="49.8503" y2="59.8644" gradientUnits="userSpaceOnUse">
<stop stop-color="white"/>
<stop offset="0.5" stop-color="#696969" stop-opacity="0.53125"/>
<stop offset="1" stop-color="white"/>
</linearGradient>
<linearGradient id="paint64_linear_11_435" x1="45.7954" y1="50.0941" x2="46.6576" y2="52.4037" gradientUnits="userSpaceOnUse">
<stop stop-color="white"/>
<stop offset="0.5" stop-color="#696969" stop-opacity="0.53125"/>
<stop offset="1" stop-color="white"/>
</linearGradient>
<linearGradient id="paint65_linear_11_435" x1="49.3143" y1="49.4267" x2="53.5009" y2="53.5865" gradientUnits="userSpaceOnUse">
<stop stop-color="white"/>
<stop offset="0.5" stop-color="#696969" stop-opacity="0.53125"/>
<stop offset="1" stop-color="white"/>
</linearGradient>
<linearGradient id="paint66_linear_11_435" x1="49.2908" y1="48.3717" x2="51.5045" y2="50.3999" gradientUnits="userSpaceOnUse">
<stop stop-color="white"/>
<stop offset="0.5" stop-color="#696969" stop-opacity="0.53125"/>
<stop offset="1" stop-color="white"/>
</linearGradient>
<linearGradient id="paint67_linear_11_435" x1="51.0488" y1="50.828" x2="51.8947" y2="51.7996" gradientUnits="userSpaceOnUse">
<stop stop-color="white"/>
<stop offset="0.5" stop-color="#696969" stop-opacity="0.53125"/>
<stop offset="1" stop-color="white"/>
</linearGradient>
<linearGradient id="paint68_linear_11_435" x1="51.8703" y1="49.3536" x2="52.7371" y2="50.1876" gradientUnits="userSpaceOnUse">
<stop stop-color="white"/>
<stop offset="0.5" stop-color="#696969" stop-opacity="0.53125"/>
<stop offset="1" stop-color="white"/>
</linearGradient>
<linearGradient id="paint69_linear_11_435" x1="49.5837" y1="50.9833" x2="50.8922" y2="51.8728" gradientUnits="userSpaceOnUse">
<stop stop-color="white"/>
<stop offset="0.5" stop-color="#696969" stop-opacity="0.53125"/>
<stop offset="1" stop-color="white"/>
</linearGradient>
<linearGradient id="paint70_linear_11_435" x1="50.259" y1="49.3436" x2="51.7361" y2="50.5535" gradientUnits="userSpaceOnUse">
<stop stop-color="white"/>
<stop offset="0.5" stop-color="#696969" stop-opacity="0.53125"/>
<stop offset="1" stop-color="white"/>
</linearGradient>
<linearGradient id="paint71_linear_11_435" x1="28.9985" y1="54.3853" x2="33.5608" y2="56.3944" gradientUnits="userSpaceOnUse">
<stop stop-color="white"/>
<stop offset="0.5" stop-color="#696969" stop-opacity="0.53125"/>
<stop offset="1" stop-color="white"/>
</linearGradient>
<linearGradient id="paint72_linear_11_435" x1="27.3555" y1="53.8739" x2="32.3108" y2="57.4209" gradientUnits="userSpaceOnUse">
<stop stop-color="white"/>
<stop offset="0.5" stop-color="#696969" stop-opacity="0.53125"/>
<stop offset="1" stop-color="white"/>
</linearGradient>
<linearGradient id="paint73_linear_11_435" x1="26.2034" y1="52.5925" x2="30.4808" y2="56.3512" gradientUnits="userSpaceOnUse">
<stop stop-color="white"/>
<stop offset="0.5" stop-color="#696969" stop-opacity="0.53125"/>
<stop offset="1" stop-color="white"/>
</linearGradient>
<linearGradient id="paint74_linear_11_435" x1="35.0096" y1="53.0798" x2="42.0749" y2="57.6495" gradientUnits="userSpaceOnUse">
<stop stop-color="white"/>
<stop offset="0.5" stop-color="#696969" stop-opacity="0.53125"/>
<stop offset="1" stop-color="white"/>
</linearGradient>
<linearGradient id="paint75_linear_11_435" x1="30.7592" y1="54.7474" x2="34.6697" y2="55.9546" gradientUnits="userSpaceOnUse">
<stop stop-color="white"/>
<stop offset="0.5" stop-color="#696969" stop-opacity="0.53125"/>
<stop offset="1" stop-color="white"/>
</linearGradient>
<linearGradient id="paint76_linear_11_435" x1="32.5875" y1="54.8224" x2="37.8955" y2="57.084" gradientUnits="userSpaceOnUse">
<stop stop-color="white"/>
<stop offset="0.5" stop-color="#696969" stop-opacity="0.53125"/>
<stop offset="1" stop-color="white"/>
</linearGradient>
<linearGradient id="paint77_linear_11_435" x1="33.3624" y1="50.9328" x2="33.657" y2="51.2047" gradientUnits="userSpaceOnUse">
<stop stop-color="white"/>
<stop offset="0.5" stop-color="#696969" stop-opacity="0.53125"/>
<stop offset="1" stop-color="white"/>
</linearGradient>
<linearGradient id="paint78_linear_11_435" x1="29.0496" y1="24.1972" x2="36.3065" y2="32.0674" gradientUnits="userSpaceOnUse">
<stop stop-color="white"/>
<stop offset="0.5" stop-color="#696969" stop-opacity="0.53125"/>
<stop offset="1" stop-color="white"/>
</linearGradient>
<linearGradient id="paint79_linear_11_435" x1="41.5777" y1="18.9974" x2="64.3296" y2="33.4021" gradientUnits="userSpaceOnUse">
<stop stop-color="white"/>
<stop offset="0.5" stop-color="#696969" stop-opacity="0.53125"/>
<stop offset="1" stop-color="white"/>
</linearGradient>
<linearGradient id="paint80_linear_11_435" x1="6.02674" y1="19.0963" x2="29.1551" y2="33.731" gradientUnits="userSpaceOnUse">
<stop stop-color="white"/>
<stop offset="0.5" stop-color="#696969" stop-opacity="0.53125"/>
<stop offset="1" stop-color="white"/>
</linearGradient>
<linearGradient id="paint81_linear_11_435" x1="20.1838" y1="45.84" x2="26.204" y2="51.5001" gradientUnits="userSpaceOnUse">
<stop stop-color="white"/>
<stop offset="0.5" stop-color="#696969" stop-opacity="0.53125"/>
<stop offset="1" stop-color="white"/>
</linearGradient>
<linearGradient id="paint82_linear_11_435" x1="39.9112" y1="45.9501" x2="45.8239" y2="51.6532" gradientUnits="userSpaceOnUse">
<stop stop-color="white"/>
<stop offset="0.5" stop-color="#696969" stop-opacity="0.53125"/>
<stop offset="1" stop-color="white"/>
</linearGradient>
<linearGradient id="paint83_linear_11_435" x1="34.8339" y1="51.2807" x2="36.3532" y2="52.7636" gradientUnits="userSpaceOnUse">
<stop stop-color="white"/>
<stop offset="0.5" stop-color="#696969" stop-opacity="0.53125"/>
<stop offset="1" stop-color="white"/>
</linearGradient>
<linearGradient id="paint84_linear_11_435" x1="32.1109" y1="51.8718" x2="33.4309" y2="52.4869" gradientUnits="userSpaceOnUse">
<stop stop-color="white"/>
<stop offset="0.5" stop-color="#696969" stop-opacity="0.53125"/>
<stop offset="1" stop-color="white"/>
</linearGradient>
<linearGradient id="paint85_linear_11_435" x1="30.7546" y1="51.4301" x2="32.1943" y2="52.9614" gradientUnits="userSpaceOnUse">
<stop stop-color="white"/>
<stop offset="0.5" stop-color="#696969" stop-opacity="0.53125"/>
<stop offset="1" stop-color="white"/>
</linearGradient>
<linearGradient id="paint86_linear_11_435" x1="33.1878" y1="52.2979" x2="34.5995" y2="53.0599" gradientUnits="userSpaceOnUse">
<stop stop-color="white"/>
<stop offset="0.5" stop-color="#696969" stop-opacity="0.53125"/>
<stop offset="1" stop-color="white"/>
</linearGradient>
<linearGradient id="paint87_linear_11_435" x1="33.265" y1="51.951" x2="34.0866" y2="52.6272" gradientUnits="userSpaceOnUse">
<stop stop-color="white"/>
<stop offset="0.5" stop-color="#696969" stop-opacity="0.53125"/>
<stop offset="1" stop-color="white"/>
</linearGradient>
<linearGradient id="paint88_linear_11_435" x1="34.3899" y1="51.8498" x2="35.614" y2="52.354" gradientUnits="userSpaceOnUse">
<stop stop-color="white"/>
<stop offset="0.5" stop-color="#696969" stop-opacity="0.53125"/>
<stop offset="1" stop-color="white"/>
</linearGradient>
<linearGradient id="paint89_linear_11_435" x1="29.9716" y1="50.9343" x2="30.6823" y2="51.7518" gradientUnits="userSpaceOnUse">
<stop stop-color="white"/>
<stop offset="0.5" stop-color="#696969" stop-opacity="0.53125"/>
<stop offset="1" stop-color="white"/>
</linearGradient>
<linearGradient id="paint90_linear_11_435" x1="31.1237" y1="50.9243" x2="31.8168" y2="51.8745" gradientUnits="userSpaceOnUse">
<stop stop-color="white"/>
<stop offset="0.5" stop-color="#696969" stop-opacity="0.53125"/>
<stop offset="1" stop-color="white"/>
</linearGradient>
<linearGradient id="paint91_linear_11_435" x1="36.4111" y1="50.9175" x2="36.9637" y2="51.6601" gradientUnits="userSpaceOnUse">
<stop stop-color="white"/>
<stop offset="0.5" stop-color="#696969" stop-opacity="0.53125"/>
<stop offset="1" stop-color="white"/>
</linearGradient>
<linearGradient id="paint92_linear_11_435" x1="34.1745" y1="51.2376" x2="34.6807" y2="51.5864" gradientUnits="userSpaceOnUse">
<stop stop-color="white"/>
<stop offset="0.5" stop-color="#696969" stop-opacity="0.53125"/>
<stop offset="1" stop-color="white"/>
</linearGradient>
<linearGradient id="paint93_linear_11_435" x1="35.1176" y1="50.8986" x2="35.7421" y2="51.7482" gradientUnits="userSpaceOnUse">
<stop stop-color="white"/>
<stop offset="0.5" stop-color="#696969" stop-opacity="0.53125"/>
<stop offset="1" stop-color="white"/>
</linearGradient>
</defs>
</svg>
