<svg width="42" height="31" viewBox="0 0 42 31" fill="none" xmlns="http://www.w3.org/2000/svg">
<path d="M11.8576 16.3839C19.4665 19.6063 23.7924 16.3446 23.7924 16.3446C20.3162 21.0996 16.9173 20.4708 14.8703 20.2743C12.8232 20.0779 7.60894 20.628 6.02535 23.7718C4.44176 26.9156 1.04285 26.4047 1.04285 26.4047C3.32167 28.6054 6.56609 26.5619 6.56609 26.5619C6.56609 26.5619 10.0422 24.0862 17.5739 26.9549C25.1056 29.8236 29.1998 22.475 29.1998 22.475C29.6246 25.8939 32.4828 26.0903 32.4828 26.0903C31.2082 22.2785 36.5383 19.174 36.5383 19.174C45.5764 13.358 40.6711 5.97011 40.6711 5.97011C34.8003 -5.11174 25.9167 2.62983 25.9167 2.62983C18.6168 9.42827 18.4237 8.60303 8.61316 10.057C-1.19734 11.511 0.656609 21.0996 0.656609 21.0996C0.656609 21.0996 4.24864 13.1615 11.8576 16.3839ZM31.749 18.6239C31.0537 19.96 28.0797 23.0252 23.3675 22.5536C18.6554 22.082 16.2607 24.0076 16.2607 24.0076C17.2263 22.3178 20.1617 21.1389 23.0972 20.7459C26.0326 20.3529 28.1569 19.0168 28.1569 19.0168C32.5214 16.3446 31.7876 12.5328 31.7876 12.5328C33.0622 15.1264 32.4442 17.2877 31.749 18.6239ZM26.7278 7.22762C30.5902 2.59054 35.8431 5.34135 36.1135 8.95671C36.1135 8.95671 32.9077 5.89151 28.2728 9.66406C23.6379 13.4366 19.2348 11.7075 18.5782 11.0395C18.5782 11.0395 22.8654 11.8647 26.7278 7.22762Z" fill="white"/>
<path d="M13.6343 7.93498C17.9602 8.83882 19.6983 4.86979 19.6983 4.86979C19.6983 4.86979 18.3464 6.48098 14.0591 5.65573C9.77188 4.83049 7.95655 7.93498 7.95655 7.93498C7.95655 7.93498 9.3084 7.03114 13.6343 7.93498Z" fill="white"/>
<path d="M8.45866 28.7233C5.40871 30.4423 2.81955 29.2734 2.81955 29.2734C4.1714 30.9632 6.41159 31.7492 9.19252 30.0594C11.9735 28.3696 13.3253 28.7233 13.3253 28.7233C13.0163 28.0945 11.143 27.2103 8.45866 28.7233Z" fill="white"/>
<path d="M5.7743 21.3943C8.45866 17.9362 11.452 18.8007 11.452 18.8007C8.94147 17.1502 6.2571 17.9362 4.40314 20.7656C2.54919 23.595 0 23.9879 0 23.9879C0 23.9879 3.08992 24.8525 5.7743 21.3943Z" fill="white"/>
</svg>
