<svg width="21" height="17" viewBox="0 0 21 17" fill="none" xmlns="http://www.w3.org/2000/svg">
<g id="Vector">
<path d="M3.56999 10.5974C2.52618 10.5974 1.67999 9.70781 1.67999 8.61041V8.38963C1.67999 7.29224 2.52618 6.40262 3.56999 6.40262C4.61381 6.40262 5.45999 7.29224 5.45999 8.38963V8.61041C5.45999 9.70781 4.61381 10.5974 3.56999 10.5974Z" fill="#D9D9D9"/>
<path d="M16.8 12.8052V10.5974H18.06V12.8052H16.8Z" fill="#D9D9D9"/>
<path d="M16.8 6.40255V4.19476H18.06V6.40255H16.8Z" fill="#D9D9D9"/>
<path d="M1.89 17C0.846181 17 0 16.1104 0 15.013C0 13.9156 0.846181 13.026 1.89 13.026H5.25C6.29382 13.026 7.14 13.9156 7.14 15.013C7.14 16.1104 6.29382 17 5.25 17H1.89Z" fill="#D9D9D9"/>
<path d="M1.89 3.97403C0.846181 3.97403 0 3.08441 0 1.98701C0 0.889616 0.846181 0 1.89 0H5.25C6.29382 0 7.14 0.889616 7.14 1.98701C7.14 3.08441 6.29382 3.97403 5.25 3.97403H1.89Z" fill="#D9D9D9"/>
<path d="M15.75 17C14.7062 17 13.86 16.1104 13.86 15.013C13.86 13.9156 14.7062 13.026 15.75 13.026H19.11C20.1538 13.026 21 13.9156 21 15.013C21 16.1104 20.1538 17 19.11 17H15.75Z" fill="#D9D9D9"/>
<path d="M15.75 3.97403C14.7062 3.97403 13.86 3.08441 13.86 1.98701C13.86 0.889616 14.7062 0 15.75 0H19.11C20.1538 0 21 0.889616 21 1.98701C21 3.08441 20.1538 3.97403 19.11 3.97403H15.75Z" fill="#D9D9D9"/>
<path d="M2.94 12.8052V10.5974H4.2V12.8052H2.94Z" fill="#D9D9D9"/>
<path d="M7.56 9.27273H5.46V7.72727H7.56V9.27273Z" fill="#D9D9D9"/>
<path d="M15.54 9.27273H13.44V7.72727H15.54V9.27273Z" fill="#D9D9D9"/>
<path d="M2.94 6.40255V4.19476H4.2V6.40255H2.94Z" fill="#D9D9D9"/>
<path d="M17.43 10.5974C16.3862 10.5974 15.54 9.70781 15.54 8.61041V8.38963C15.54 7.29224 16.3862 6.40262 17.43 6.40262C18.4738 6.40262 19.32 7.29224 19.32 8.38963V8.61041C19.32 9.70781 18.4738 10.5974 17.43 10.5974Z" fill="#D9D9D9"/>
<path d="M9.76501 11.0389C8.43124 11.0389 7.35001 9.90222 7.35001 8.49999C7.35001 7.09776 8.43124 5.96102 9.76501 5.96102H11.445C12.7788 5.96102 13.86 7.09776 13.86 8.49999C13.86 9.90222 12.7788 11.0389 11.445 11.0389H9.76501Z" fill="#D9D9D9"/>
</g>
</svg>
