<svg width="176" height="39" viewBox="0 0 176 39" fill="none" xmlns="http://www.w3.org/2000/svg">
<path d="M0.395875 2.68426C0.395875 1.38301 1.45075 0.328136 2.752 0.328136H173.571C174.872 0.328136 175.927 1.38301 175.927 2.68426V35.6699C175.927 36.9712 174.872 38.0261 173.571 38.0261H2.752C1.45075 38.0261 0.395875 36.9712 0.395875 35.6699V2.68426Z" fill="#D9D9D9" fill-opacity="0.07"/>
<path d="M48.6963 18.3357C48.6963 19.7337 48.2818 21.1003 47.5051 22.2627C46.7284 23.4251 45.6245 24.331 44.3329 24.866C43.0414 25.401 41.6201 25.541 40.249 25.2682C38.8779 24.9955 37.6184 24.3223 36.6299 23.3338C35.6414 22.3453 34.9682 21.0858 34.6954 19.7147C34.4227 18.3435 34.5627 16.9223 35.0977 15.6308C35.6327 14.3392 36.5386 13.2353 37.701 12.4586C38.8634 11.6819 40.23 11.2673 41.628 11.2673C43.5026 11.2673 45.3005 12.012 46.6261 13.3376C47.9516 14.6632 48.6963 16.4611 48.6963 18.3357ZM6.28617 18.3357C6.28617 16.9377 5.87162 15.5711 5.09494 14.4087C4.31826 13.2463 3.21433 12.3404 1.92275 11.8054C0.631181 11.2704 -0.790031 11.1304 -2.16116 11.4032C-3.53229 11.6759 -4.79175 12.3491 -5.78028 13.3376C-6.76881 14.3261 -7.442 15.5856 -7.71474 16.9567C-7.98747 18.3279 -7.84749 19.7491 -7.31251 21.0406C-6.77752 22.3322 -5.87155 23.4361 -4.70916 24.2128C-3.54678 24.9895 -2.18018 25.4041 -0.78219 25.4041C1.09246 25.4041 2.89032 24.6594 4.2159 23.3338C5.54147 22.0082 6.28617 20.2103 6.28617 18.3357ZM11.335 13.2869C12.733 13.2869 14.0996 12.8723 15.262 12.0956C16.4244 11.319 17.3303 10.215 17.8653 8.92345C18.4003 7.63188 18.5403 6.21067 18.2675 4.83954C17.9948 3.46841 17.3216 2.20895 16.3331 1.22042C15.3446 0.231897 14.0851 -0.441299 12.714 -0.714034C11.3428 -0.986768 9.92163 -0.846791 8.63006 -0.311803C7.33848 0.223184 6.23455 1.12915 5.45787 2.29154C4.68119 3.45393 4.26664 4.82052 4.26664 6.21851C4.26664 8.09316 5.01134 9.89102 6.33692 11.2166C7.66249 12.5422 9.46036 13.2869 11.335 13.2869ZM29.5108 13.2869C30.9088 13.2869 32.2754 12.8723 33.4378 12.0956C34.6001 11.319 35.5061 10.215 36.0411 8.92345C36.5761 7.63188 36.7161 6.21067 36.4433 4.83954C36.1706 3.46841 35.4974 2.20895 34.5089 1.22042C33.5204 0.231897 32.2609 -0.441299 30.8898 -0.714034C29.5186 -0.986768 28.0974 -0.846791 26.8058 -0.311803C25.5143 0.223184 24.4103 1.12915 23.6337 2.29154C22.857 3.45393 22.4424 4.82052 22.4424 6.21851C22.4424 8.09316 23.1871 9.89102 24.5127 11.2166C25.8383 12.5422 27.6361 13.2869 29.5108 13.2869ZM35.3472 28.6505C34.3214 28.0845 33.4173 27.3219 32.6865 26.4062C31.9558 25.4905 31.4128 24.4396 31.0886 23.3138C30.4171 21.0046 29.0143 18.9757 27.091 17.532C25.1677 16.0883 22.8278 15.3078 20.4229 15.3078C18.018 15.3078 15.6781 16.0883 13.7548 17.532C11.8315 18.9757 10.4287 21.0046 9.75724 23.3138C9.1086 25.5792 7.58795 27.4947 5.52885 28.6404C3.55354 29.7092 1.99095 31.4061 1.08822 33.4626C0.185486 35.5191 -0.00585842 37.8179 0.544449 39.9954C1.09476 42.1729 2.3553 44.1048 4.12672 45.4855C5.89813 46.8662 8.0793 47.6169 10.3252 47.6189C11.6712 47.6228 13.0039 47.354 14.2431 46.8288C18.194 45.1994 22.6291 45.1994 26.5799 46.8288C28.973 47.8695 31.676 47.9435 34.1223 47.035C36.5687 46.1266 38.5683 44.3064 39.7021 41.956C40.8358 39.6056 41.0156 36.9075 40.2038 34.4275C39.3919 31.9474 37.6514 29.878 35.3472 28.653V28.6505Z" fill="white" fill-opacity="0.02"/>
<path d="M182.995 28.7699C182.995 29.4689 182.788 30.1522 182.4 30.7334C182.011 31.3146 181.459 31.7676 180.814 32.0351C180.168 32.3026 179.457 32.3726 178.772 32.2362C178.086 32.0999 177.456 31.7633 176.962 31.269C176.468 30.7747 176.131 30.145 175.995 29.4594C175.858 28.7739 175.928 28.0633 176.196 27.4175C176.463 26.7717 176.916 26.2197 177.498 25.8314C178.079 25.443 178.762 25.2358 179.461 25.2358C180.398 25.2358 181.297 25.6081 181.96 26.2709C182.623 26.9337 182.995 27.8326 182.995 28.7699ZM161.79 28.7699C161.79 28.071 161.583 27.3877 161.195 26.8065C160.806 26.2253 160.254 25.7723 159.608 25.5048C158.963 25.2373 158.252 25.1673 157.566 25.3037C156.881 25.44 156.251 25.7766 155.757 26.2709C155.263 26.7652 154.926 27.3949 154.79 28.0805C154.653 28.766 154.723 29.4766 154.991 30.1224C155.258 30.7682 155.711 31.3202 156.292 31.7085C156.874 32.0969 157.557 32.3041 158.256 32.3041C159.193 32.3041 160.092 31.9318 160.755 31.269C161.418 30.6062 161.79 29.7073 161.79 28.7699ZM164.315 26.2455C165.014 26.2455 165.697 26.0383 166.278 25.6499C166.859 25.2616 167.312 24.7096 167.58 24.0638C167.847 23.418 167.917 22.7074 167.781 22.0219C167.644 21.3363 167.308 20.7066 166.814 20.2123C166.319 19.718 165.69 19.3814 165.004 19.2451C164.318 19.1087 163.608 19.1787 162.962 19.4462C162.316 19.7137 161.764 20.1667 161.376 20.7479C160.988 21.3291 160.78 22.0124 160.78 22.7114C160.78 23.6487 161.153 24.5476 161.816 25.2104C162.478 25.8732 163.377 26.2455 164.315 26.2455ZM173.402 26.2455C174.101 26.2455 174.785 26.0383 175.366 25.6499C175.947 25.2616 176.4 24.7096 176.668 24.0638C176.935 23.418 177.005 22.7074 176.869 22.0219C176.732 21.3363 176.396 20.7066 175.902 20.2123C175.407 19.718 174.778 19.3814 174.092 19.2451C173.406 19.1087 172.696 19.1787 172.05 19.4462C171.404 19.7137 170.852 20.1667 170.464 20.7479C170.076 21.3291 169.868 22.0124 169.868 22.7114C169.868 23.6487 170.241 24.5476 170.903 25.2104C171.566 25.8732 172.465 26.2455 173.402 26.2455ZM176.321 33.9273C175.808 33.6444 175.356 33.2631 174.99 32.8052C174.625 32.3473 174.353 31.8219 174.191 31.259C173.856 30.1044 173.154 29.09 172.193 28.3681C171.231 27.6463 170.061 27.256 168.859 27.256C167.656 27.256 166.486 27.6463 165.524 28.3681C164.563 29.09 163.861 30.1044 163.526 31.259C163.201 32.3917 162.441 33.3495 161.411 33.9223C160.424 34.4567 159.643 35.3051 159.191 36.3334C158.74 37.3617 158.644 38.5111 158.919 39.5998C159.194 40.6885 159.825 41.6545 160.71 42.3448C161.596 43.0352 162.687 43.4105 163.81 43.4116C164.483 43.4135 165.149 43.2791 165.769 43.0165C167.744 42.2018 169.962 42.2018 171.937 43.0165C173.134 43.5369 174.485 43.5738 175.708 43.1196C176.931 42.6654 177.931 41.7553 178.498 40.5801C179.065 39.4049 179.155 38.0559 178.749 36.8158C178.343 35.5758 177.473 34.5411 176.321 33.9286V33.9273Z" fill="white" fill-opacity="0.02"/>
</svg>
