<svg width="26" height="27" viewBox="0 0 26 27" fill="none" xmlns="http://www.w3.org/2000/svg">
<path d="M13.0507 0.756584C10.5108 0.756584 8.02802 1.50974 5.9162 2.92082C3.80438 4.33189 2.15842 6.3375 1.18645 8.68403C0.214487 11.0306 -0.0398227 13.6126 0.45568 16.1037C0.951184 18.5947 2.17424 20.8829 3.9702 22.6789C5.76616 24.4748 8.05434 25.6979 10.5454 26.1934C13.0365 26.6889 15.6185 26.4346 17.9651 25.4626C20.3116 24.4907 22.3172 22.8447 23.7283 20.7329C25.1393 18.6211 25.8925 16.1382 25.8925 13.5984C25.8889 10.1936 24.5348 6.92935 22.1273 4.52183C19.7197 2.1143 16.4555 0.76018 13.0507 0.756584ZM23.8712 12.6105H19.6408C19.6346 10.7787 19.2373 8.96926 18.4753 7.30337C17.7134 5.63747 16.6045 4.15352 15.2227 2.9508C17.5093 3.42107 19.5843 4.61381 21.1415 6.35307C22.6986 8.09233 23.6556 10.286 23.8712 12.6105ZM2.74395 17.0397C2.00431 14.8251 1.99813 12.431 2.72635 10.2125C3.45456 7.9941 4.87837 6.06943 6.78664 4.72395L8.90059 8.3851C7.31718 9.30596 5.94877 10.5545 4.88698 12.0471C3.8252 13.5397 3.09455 15.2419 2.74395 17.0397ZM4.51834 20.3193C4.36223 18.2829 4.78322 16.2437 5.73304 14.4355C6.68285 12.6274 8.12304 11.1236 9.88842 10.0965L11.9098 13.5984L6.78664 22.4728C5.93132 21.8673 5.16742 21.142 4.51834 20.3193ZM23.1439 17.6213C21.4583 18.7768 19.481 19.4335 17.439 19.5161C15.3971 19.5986 13.3732 19.1037 11.5998 18.0881L13.6212 14.5862H23.8699C23.7766 15.6278 23.5321 16.6503 23.1439 17.6213Z" fill="#8E6A47"/>
</svg>
