<svg width="46" height="46" viewBox="0 0 46 46" fill="none" xmlns="http://www.w3.org/2000/svg">
<path d="M44.0992 21.0117C44.0992 16.9844 42.8113 13.0544 40.4098 9.75423C38.0084 6.45405 34.6096 3.9432 30.674 2.56187C26.7383 1.18053 22.456 0.995488 18.4073 2.0318C14.3585 3.06812 10.739 5.2757 8.03925 8.35545C5.33945 11.4352 3.68982 15.2382 3.31387 19.2493C2.93792 23.2604 3.85382 27.2856 5.93748 30.7796C8.02113 34.2736 11.1718 37.0674 14.9627 38.7826C18.7535 40.4979 23.0013 41.0515 27.1304 40.3686L23.6653 21.0117H44.0992Z" fill="#CFF80B"/>
<path fill-rule="evenodd" clip-rule="evenodd" d="M0 15.8023C0 23 11.7918 46 22.9802 46H22.9805C34.1692 46 46 24.0172 46 14.9726C46 9.25409 40.4662 0 22.9142 0C5.3625 0 0 10.2227 0 15.8023V15.8023ZM14.8826 17.413C10.6914 13.0641 8.09014 8.65573 8.09014 8.65573C8.09014 8.65573 12.376 6.60451 15.1759 6.05675C15.4144 6.01015 15.6577 5.96013 15.907 5.90924C18.5829 5.36148 21.9116 4.68051 26.7117 6.33692C36.6988 9.78355 40.9569 16.2302 40.9569 16.2302C40.9569 16.2302 34.53 11.2556 27.4528 10.2567C23.3761 9.6812 15.793 12.0155 15.793 12.0155C15.793 12.0155 18.4288 14.697 20.5741 18.6234C20.9123 19.2423 21.2418 19.809 21.5574 20.3516C23.2431 23.2496 24.5238 25.4512 24.5238 31.1952C24.5238 35.386 21.2284 41.6137 21.2284 41.6137C21.2284 41.6137 23.0793 33.4994 21.5865 27.0836C20.5078 22.4457 19.6756 21.7321 17.7141 20.05C16.9622 19.4053 16.0441 18.6182 14.8826 17.413V17.413Z" fill="white"/>
</svg>
